<?xml version="1.0" standalone="no"?>
<!DOCTYPE svg PUBLIC "-//W3C//DTD SVG 20010904//EN"
 "http://www.w3.org/TR/2001/REC-SVG-20010904/DTD/svg10.dtd">
<svg version="1.0" xmlns="http://www.w3.org/2000/svg"
 width="126.000000pt" height="126.000000pt" viewBox="0 0 126.000000 126.000000"
 preserveAspectRatio="xMidYMid meet">
<metadata>
Created by potrace 1.11, written by Peter Selinger 2001-2013
</metadata>
<g transform="translate(0.000000,126.000000) scale(0.100000,-0.100000)"
fill="#000000" stroke="none">
<path d="M0 972 c0 -5 24 -32 54 -61 l55 -51 166 0 c214 0 255 -16 255 -97 0
-74 -55 -93 -276 -93 l-146 0 -54 -32 -54 -33 0 -162 0 -163 60 0 60 0 0 135
0 135 135 0 135 0 101 -135 100 -135 71 0 c59 0 69 2 64 15 -3 9 -52 75 -108
147 -57 73 -97 133 -91 135 36 12 81 54 101 93 41 81 26 185 -34 242 -62 57
-87 62 -351 66 -146 2 -243 0 -243 -6z"/>
<path d="M700 957 c0 -15 16 -36 45 -60 l44 -37 228 2 228 3 3 58 3 57 -276 0
-275 0 0 -23z"/>
<path d="M780 686 c-5 -14 -23 -37 -40 -52 -16 -15 -30 -31 -30 -36 0 -4 117
-8 260 -8 l261 0 -3 58 -3 57 -218 3 -217 2 -10 -24z"/>
<path d="M806 392 c-2 -4 13 -31 35 -60 l40 -52 185 0 185 0 -3 58 -3 57 -217
3 c-119 1 -219 -1 -222 -6z"/>
</g>
</svg>
