<svg width="36" height="36" viewBox="0 0 36 36" fill="none" xmlns="http://www.w3.org/2000/svg">
<path d="M6.64996 5.26071L10.6439 9.25464C10.1637 9.66248 9.7172 10.1089 9.30695 10.5916L5.31302 6.59765C5.13444 6.41907 5.0355 6.18257 5.0355 5.92918C5.0355 5.6782 5.13444 5.43929 5.31302 5.26071C5.68225 4.89389 6.28073 4.89389 6.64996 5.26071Z" fill="#007DED"/>
<path d="M10.9023 17.5108C11.1267 13.9392 13.9913 11.077 17.5605 10.8526C17.7125 10.843 17.8621 10.8381 18.0142 10.8381C19.9086 10.8381 21.7306 11.5862 23.0723 12.928C24.5203 14.376 25.278 16.3862 25.1477 18.4399C24.9233 22.0115 22.0588 24.8736 18.4896 25.098C16.4359 25.2284 14.4256 24.4706 12.9777 23.0226C11.5297 21.5747 10.772 19.5645 10.9023 17.5108ZM18.0262 23.2229V12.7277C15.1327 12.7277 12.7774 15.0806 12.7774 17.9765C12.7774 20.8676 15.1327 23.2229 18.0262 23.2229Z" fill="#007DED"/>
<path d="M18.9696 0.943581V6.58094C18.6342 6.54956 18.3253 6.53508 18.0236 6.53508C17.722 6.53508 17.4131 6.54956 17.0776 6.58094V0.943581C17.08 0.424732 17.5048 0 18.026 0C18.5449 0 18.9696 0.424732 18.9696 0.943581Z" fill="#007DED"/>
<path d="M0.995706 18.9199C0.474443 18.9199 0.0521235 18.4952 0.0521235 17.9739C0.0521235 17.4526 0.476857 17.0279 0.995706 17.0279H6.63065C6.59927 17.3633 6.58479 17.6722 6.58479 17.9739C6.58479 18.2755 6.59927 18.5844 6.63065 18.9199H0.995706Z" fill="#007DED"/>
<path d="M29.3998 30.6819L25.4083 26.6904C25.8885 26.2826 26.335 25.8361 26.7452 25.3535L30.7367 29.345C31.1059 29.7142 31.1059 30.3127 30.7367 30.6819C30.3675 31.0511 29.7666 31.0511 29.3998 30.6819Z" fill="#007DED"/>
<path d="M35.054 17.0303C35.5753 17.0303 36 17.4526 36 17.9739C36 18.4952 35.5753 18.9199 35.054 18.9199H29.4167C29.448 18.5844 29.4625 18.2755 29.4625 17.9739C29.4625 17.6722 29.448 17.3633 29.4167 17.0279H35.054V17.0303Z" fill="#007DED"/>
<path d="M18.9696 29.3693V35.0066C18.9696 35.5279 18.5449 35.9502 18.026 35.9502C17.5048 35.9502 17.08 35.5255 17.08 35.0066V29.3693C17.7485 29.432 18.3011 29.432 18.9696 29.3693Z" fill="#007DED"/>
<path d="M5.31305 30.6844L5.3034 30.6748C5.12965 30.4986 5.03553 30.2645 5.03553 30.0159C5.03553 29.7625 5.13447 29.5261 5.31305 29.3475L9.30457 25.356C9.71241 25.8386 10.1613 26.2851 10.6415 26.6929L6.64758 30.6844C6.28077 31.0512 5.68228 31.0512 5.31305 30.6844Z" fill="#007DED"/>
<path d="M30.7343 5.26355L30.744 5.27321C30.9178 5.44937 31.0119 5.68346 31.0119 5.93202C31.0119 6.18542 30.9129 6.42191 30.7343 6.60049L26.7404 10.592C26.3326 10.1094 25.8861 9.66291 25.4059 9.25507L29.3974 5.26355C29.7666 4.89433 30.3651 4.89433 30.7343 5.26355Z" fill="#007DED"/>
</svg>
