<svg width="35" height="35" viewBox="0 0 35 35" fill="none" xmlns="http://www.w3.org/2000/svg">
<path fill-rule="evenodd" clip-rule="evenodd" d="M12.5 1.66667H22.5C28.4831 1.66667 33.3333 6.51692 33.3333 12.5V22.5C33.3333 28.4831 28.4831 33.3333 22.5 33.3333H12.5C6.51691 33.3333 1.66667 28.4831 1.66667 22.5V12.5C1.66667 6.51692 6.51691 1.66667 12.5 1.66667ZM22.5 0C29.4036 0 35 5.59644 35 12.5V22.5C35 29.4036 29.4036 35 22.5 35H12.5C5.59644 35 0 29.4036 0 22.5V12.5C0 5.59644 5.59644 0 12.5 0H22.5Z" fill="#007DED"/>
<path fill-rule="evenodd" clip-rule="evenodd" d="M15.4808 10.0962H19.5192C22.4931 10.0962 24.9038 12.5069 24.9038 15.4808V19.5192C24.9038 22.4931 22.4931 24.9038 19.5192 24.9038H15.4808C12.5069 24.9038 10.0962 22.4931 10.0962 19.5192V15.4808C10.0962 12.5069 12.5069 10.0962 15.4808 10.0962ZM19.5192 8.75C23.2365 8.75 26.25 11.7635 26.25 15.4808V19.5192C26.25 23.2365 23.2365 26.25 19.5192 26.25H15.4808C11.7635 26.25 8.75 23.2365 8.75 19.5192V15.4808C8.75 11.7635 11.7635 8.75 15.4808 8.75H19.5192Z" fill="#007DED"/>
<path d="M22.3611 4.86108L21.3889 4.86108L21.3889 9.7222L22.3611 9.7222L22.3611 4.86108Z" fill="#007DED"/>
<path d="M19.4444 4.86108L18.4722 4.86108L18.4722 9.7222L19.4444 9.7222L19.4444 4.86108Z" fill="#007DED"/>
<path d="M16.5278 4.86108L15.5555 4.86108L15.5555 9.7222L16.5278 9.7222L16.5278 4.86108Z" fill="#007DED"/>
<path d="M13.6111 4.86108L12.6389 4.86108L12.6389 9.7222L13.6111 9.7222L13.6111 4.86108Z" fill="#007DED"/>
<path d="M22.3611 25.2778H21.3889L21.3889 29.1667H22.3611L22.3611 25.2778Z" fill="#007DED"/>
<path d="M19.4444 25.2778H18.4722L18.4722 29.1667H19.4444L19.4444 25.2778Z" fill="#007DED"/>
<path d="M16.5278 25.2778H15.5555L15.5555 29.1667H16.5278L16.5278 25.2778Z" fill="#007DED"/>
<path d="M13.6111 25.2778H12.6389L12.6389 29.1667H13.6111L13.6111 25.2778Z" fill="#007DED"/>
<path d="M5.83333 12.6389L5.83333 13.6111L9.72222 13.6111L9.72222 12.6389L5.83333 12.6389Z" fill="#007DED"/>
<path d="M5.83333 15.5555L5.83333 16.5278L9.72222 16.5278L9.72222 15.5555L5.83333 15.5555Z" fill="#007DED"/>
<path d="M5.83333 18.4722L5.83333 19.4445L9.72222 19.4445L9.72222 18.4722L5.83333 18.4722Z" fill="#007DED"/>
<path d="M5.83333 21.3889L5.83333 22.3611L9.72222 22.3611L9.72222 21.3889L5.83333 21.3889Z" fill="#007DED"/>
<path d="M25.2778 12.6389L25.2778 13.6111L29.1667 13.6111L29.1667 12.6389L25.2778 12.6389Z" fill="#007DED"/>
<path d="M25.2778 15.5555L25.2778 16.5278L29.1667 16.5278L29.1667 15.5555L25.2778 15.5555Z" fill="#007DED"/>
<path d="M25.2778 18.4722L25.2778 19.4445L29.1667 19.4445L29.1667 18.4722L25.2778 18.4722Z" fill="#007DED"/>
<path d="M25.2778 21.3889L25.2778 22.3611L29.1667 22.3611L29.1667 21.3889L25.2778 21.3889Z" fill="#007DED"/>
</svg>
