<svg width="36" height="36" viewBox="0 0 36 36" fill="none" xmlns="http://www.w3.org/2000/svg">
<path fill-rule="evenodd" clip-rule="evenodd" d="M17.9073 0.0120923C14.2615 -0.114379 10.8349 0.756778 7.90144 2.36381L7.90104 2.36403C2.76762 5.17852 2.46712 11.8073 6.68995 15.4915C6.70981 15.5092 6.72117 15.5193 6.73109 15.5285C6.73776 15.5347 6.74085 15.5377 6.74147 15.5383L6.74392 15.5408L6.74696 15.5439C7.57794 16.3903 7.93271 17.2941 7.93429 18.0985C7.93585 18.8925 7.5953 19.7015 6.81216 20.3965L6.78477 20.4208L6.75885 20.4466C6.31107 20.891 6.04317 21.0311 5.9362 21.0732C5.93486 21.0721 5.93349 21.0711 5.93209 21.0699C5.81647 20.978 5.72531 20.8685 5.56061 20.6706C5.50583 20.6048 5.4429 20.5293 5.36823 20.4413C5.24778 20.2994 5.07486 20.1027 4.8656 19.9311C4.65701 19.7601 4.31809 19.5346 3.85416 19.4645L3.60191 19.4263L3.3527 19.4798C2.59385 19.6424 2.00452 19.9914 1.5504 20.3803C-0.272335 21.9321 -0.433376 24.4956 0.781364 26.3422C4.03347 31.2879 10.3876 36 17.2148 36C27.7689 36 36.2866 27.6601 35.9926 17.4878C35.7183 8.07883 27.7352 0.348638 17.908 0.0121173M9.23208 4.5822C11.7446 3.20588 14.6786 2.45881 17.8109 2.56759L17.8116 2.56761C26.22 2.85523 33.083 9.48984 33.3184 17.5584M9.23208 4.5822C5.8454 6.43901 5.45623 10.9573 8.49736 13.6062L8.50266 13.6108L8.51483 13.6216C8.5533 13.6558 8.62597 13.7204 8.69894 13.7953C9.92406 15.0437 10.6065 16.5506 10.6095 18.0937C10.6125 19.6366 9.93449 21.1024 8.66022 22.2457C7.94284 22.9522 7.1925 23.4592 6.3701 23.6045C5.43844 23.7692 4.71102 23.4255 4.22066 23.0354C3.89714 22.778 3.60821 22.4372 3.424 22.2137C3.39404 22.2362 3.36437 22.2601 3.33484 22.2854L3.33284 22.2872L3.33083 22.2889C2.6018 22.9087 2.43806 24.0568 3.04615 24.9811C5.98933 29.457 11.6023 33.4428 17.2148 33.4428C26.2595 33.4428 33.5707 26.2938 33.3184 17.5584M3.12379 21.872C3.12132 21.87 3.12181 21.8706 3.12521 21.8732C3.12471 21.8728 3.12424 21.8724 3.12379 21.872Z" fill="#007DED"/>
<path fill-rule="evenodd" clip-rule="evenodd" d="M25.1053 7.6008C26.3988 7.6008 27.4497 8.65018 27.4497 9.94738C27.4497 11.2446 26.3988 12.294 25.1053 12.294C23.8118 12.294 22.7609 11.2446 22.7609 9.94738C22.7609 8.65018 23.8118 7.6008 25.1053 7.6008ZM28.4211 9.94738C28.4211 8.11735 26.9378 6.63159 25.1053 6.63159C23.2728 6.63159 21.7895 8.11735 21.7895 9.94738C21.7895 11.7774 23.2728 13.2632 25.1053 13.2632C26.9378 13.2632 28.4211 11.7774 28.4211 9.94738Z" fill="#007DED"/>
<path fill-rule="evenodd" clip-rule="evenodd" d="M25.579 23.6869C26.6216 23.6869 27.4689 24.5328 27.4689 25.5789C27.4689 26.6251 26.6216 27.471 25.579 27.471C24.5364 27.471 23.689 26.6251 23.689 25.5789C23.689 24.5328 24.5364 23.6869 25.579 23.6869ZM28.4211 25.5789C28.4211 24.0105 27.1498 22.7368 25.579 22.7368C24.0081 22.7368 22.7369 24.0105 22.7369 25.5789C22.7369 27.1474 24.0081 28.421 25.579 28.421C27.1498 28.421 28.4211 27.1474 28.4211 25.5789Z" fill="#007DED"/>
<path fill-rule="evenodd" clip-rule="evenodd" d="M19.8948 29.2921C20.4581 29.2921 20.9167 29.7493 20.9167 30.3158C20.9167 30.8823 20.4581 31.3396 19.8948 31.3396C19.3315 31.3396 18.8728 30.8823 18.8728 30.3158C18.8728 29.7493 19.3315 29.2921 19.8948 29.2921ZM21.7895 30.3158C21.7895 29.2705 20.9423 28.4211 19.8948 28.4211C18.8472 28.4211 18 29.2705 18 30.3158C18 31.3612 18.8472 32.2106 19.8948 32.2106C20.9423 32.2106 21.7895 31.3612 21.7895 30.3158Z" fill="#007DED"/>
<path fill-rule="evenodd" clip-rule="evenodd" d="M27.6017 14.1592C29.512 14.1592 31.0583 15.708 31.0583 17.6158C31.0583 19.5236 29.512 21.0724 27.6017 21.0724C25.6914 21.0724 24.1451 19.5236 24.1451 17.6158C24.1451 15.708 25.6914 14.1592 27.6017 14.1592Z" fill="#007DED"/>
</svg>
