<svg width="30" height="34" viewBox="0 0 30 34" fill="none" xmlns="http://www.w3.org/2000/svg">
<path d="M4.65009 11.575C5.69353 11.2493 6.83649 11.6255 7.49305 12.5114L8.85593 14.35L10.0069 4.67966C10.0743 4.06407 10.3745 3.51199 10.8497 3.12602C11.3265 2.73843 11.9236 2.56091 12.532 2.62931C12.9109 2.67166 13.2576 2.80683 13.5546 3.00877C13.7617 1.65381 14.8757 0.678303 16.0925 0.815101C16.7186 0.885129 17.2708 1.23038 17.6481 1.78735C17.982 2.2808 18.1393 2.88825 18.0991 3.51362C18.4379 3.38008 18.8055 3.32959 19.1779 3.37031C19.7863 3.43871 20.3305 3.74162 20.7141 4.22693C21.0994 4.80832 20.9084 6.62905 20.9325 7.10947C21.4542 6.89613 22.0481 6.88147 22.6196 7.09644C22.8139 7.16973 22.9985 7.27233 23.1638 7.40098C23.8284 7.92049 24.1527 8.70383 24.066 9.5067L23.4929 21.1313C23.2007 23.8201 21.7704 26.1896 19.5519 27.6863L18.5518 33.3537C18.5278 33.694 18.25 33.9562 17.9145 33.9562H7.99229C7.81089 33.9562 7.63752 33.878 7.51552 33.7396C7.39352 33.6028 7.33573 33.4188 7.3566 33.2364L7.95858 27.6944C7.07568 26.7922 6.2618 24.3722 6.12214 20.9522L2.9485 14.9363C2.76871 14.3517 2.7671 13.7198 2.98542 13.1482C3.2824 12.3795 3.88759 11.8127 4.65009 11.575ZM9.00362 16.7082L6.49456 13.3224C6.20882 12.9364 5.7465 12.7068 5.27455 12.7622C4.7416 12.8257 4.31459 13.1824 4.15085 13.6986C4.06577 13.9689 4.07861 14.2605 4.16209 14.5308L7.36784 20.6493C7.38549 20.7063 7.39513 20.7682 7.39673 20.8284C7.49465 23.9846 8.31335 26.2271 9.00201 26.9225L9.07907 27.0007C9.21552 27.1391 9.28294 27.3345 9.26207 27.5299L8.70504 32.6615H17.319L18.2998 27.2726C18.3143 27.0658 18.425 26.8769 18.5984 26.7678C20.6403 25.4975 21.9615 23.3934 22.2215 20.9929L22.7962 9.36502C22.8251 9.09794 22.748 8.83411 22.5811 8.6224C22.4125 8.41069 22.1701 8.27715 21.9021 8.2462C21.6324 8.21689 21.3691 8.29343 21.1588 8.4628C20.9501 8.63217 20.8185 8.87157 20.7896 9.14028L20.1924 15.6724C20.1427 16.1284 19.6242 16.4997 19.1779 16.2261C18.9564 16.091 18.8456 15.8255 18.8729 15.5633L19.934 5.78871C19.9629 5.51674 19.8874 5.24966 19.7189 5.03632C19.5503 4.82298 19.3095 4.68944 19.0414 4.65849C18.7734 4.62918 18.5101 4.70572 18.2998 4.87672C18.0895 5.04772 17.9579 5.292 17.9274 5.56397L16.8631 15.3744C16.8229 15.7457 16.489 15.9851 16.1343 15.9444C15.7811 15.9053 15.5082 15.5959 15.5484 15.2278L16.8165 3.50222C16.8551 3.14068 16.7764 2.7938 16.5934 2.52183C16.4297 2.2808 16.2033 2.1326 15.9529 2.10492C15.3991 2.04303 14.887 2.56906 14.8099 3.27748L13.5369 15.0047C13.4968 15.3744 13.1645 15.6154 12.8097 15.5747C12.455 15.5356 12.1821 15.2278 12.2222 14.8565L13.2833 5.08518C13.3395 4.56404 13.0216 4.05593 12.5192 3.93704C12.113 3.84096 11.6989 3.9973 11.4485 4.35558C11.3521 4.49238 11.2992 4.65524 11.2815 4.82135V4.82786L9.97 15.8434L10.0422 16.2294C10.1482 16.7961 9.4547 17.1902 9.06301 16.7717C9.04054 16.7538 9.02128 16.731 9.00362 16.7082Z" fill="#007DED"/>
<path d="M1.35115 9.05243C0.998294 9.05243 0.712249 8.76224 0.712249 8.40427C0.712249 8.0463 0.998294 7.7561 1.35115 7.7561C1.70401 7.7561 1.99005 8.0463 1.99005 8.40427C1.99005 8.76224 1.70401 9.05243 1.35115 9.05243Z" fill="#007DED"/>
<path d="M6.11086 1.17655C6.08838 1.19284 3.82815 2.86048 2.63864 5.87656C2.50219 6.22345 2.09123 6.38141 1.76215 6.21693C1.46678 6.06873 1.32873 5.70394 1.45233 5.39451C2.7799 2.02991 5.26327 0.197789 5.36761 0.121247C5.65496 -0.0872083 6.05467 -0.0204375 6.26015 0.271074C6.46402 0.562585 6.3982 0.968096 6.11086 1.17655Z" fill="#007DED"/>
<path d="M6.15904 3.00551C6.42551 2.771 6.82844 2.80031 7.0596 3.07065C7.29076 3.34099 7.26347 3.74976 6.99699 3.9859C6.97131 4.0087 4.40286 6.32614 4.26801 10.023C4.25357 10.4008 3.91164 10.6923 3.54243 10.6418C3.22137 10.5978 2.97897 10.3047 2.99021 9.97573C3.14592 5.69914 6.03703 3.11299 6.15904 3.00551Z" fill="#007DED"/>
<path d="M27.8014 10.1238C27.6264 9.81437 27.7307 9.417 28.0357 9.23786C28.3423 9.05872 28.7324 9.16458 28.909 9.474C28.9588 9.56195 30.113 11.6204 29.991 14.3662C29.9765 14.6952 29.71 14.9671 29.3858 14.985C29.0134 15.0046 28.6971 14.6854 28.7132 14.3076C28.8175 11.9559 27.811 10.1417 27.8014 10.1238Z" fill="#007DED"/>
<path d="M27.0759 12.425C27.1016 12.5145 27.718 14.6268 27.2075 16.8758C27.1321 17.2113 26.7982 17.4312 26.4659 17.3676C26.1144 17.2992 25.8816 16.9393 25.9618 16.5843C26.3937 14.6854 25.8607 12.824 25.8527 12.7979C25.7516 12.4543 25.9426 12.0944 26.2813 11.9901C26.6168 11.8875 26.9732 12.083 27.0759 12.425Z" fill="#007DED"/>
</svg>
