<svg width="26" height="33" viewBox="0 0 26 33" fill="none" xmlns="http://www.w3.org/2000/svg">
<path fill-rule="evenodd" clip-rule="evenodd" d="M9.5849 0.962865C9.55324 0.915879 9.52258 0.870384 9.49295 0.826425C9.21132 0.4086 9.02314 0.129404 8.96125 0.0253532C8.96082 0.024632 8.96039 0.0239193 8.95998 0.0232149C8.95639 0.0171598 8.95326 0.0117273 8.95058 0.00692533C8.94582 -0.00230844 8.93155 -0.00230844 8.9268 0.00692533C8.92409 0.0117371 8.92094 0.0171818 8.91733 0.0232517C8.91694 0.0239012 8.91655 0.0245578 8.91615 0.0252216C8.85485 0.127825 8.67041 0.40121 8.39446 0.810224C8.36152 0.859044 8.32728 0.909796 8.29179 0.96242C8.27245 0.991095 8.25274 1.02032 8.23267 1.0501C6.12126 4.18237 0 13.3594 0 17.3249C0 22.1149 3.99839 26 8.93631 26C13.8742 26 17.875 22.1149 17.875 17.3249C17.875 13.3614 11.754 4.18333 9.64389 1.05042C9.62386 1.02069 9.6042 0.9915 9.5849 0.962865ZM8.93807 2.09818C8.76534 2.35544 8.57454 2.64078 8.36914 2.95045C7.52068 4.22964 6.42696 5.91798 5.3465 7.72787C4.26375 9.54158 3.20634 11.4574 2.42306 13.1943C1.61934 14.9765 1.17903 16.4127 1.17903 17.3249C1.17903 21.4736 4.6437 24.8491 8.93631 24.8491C13.2293 24.8491 16.696 21.4732 16.696 17.3249C16.696 16.4133 16.2557 14.9775 15.452 13.1953C14.6687 11.4585 13.6114 9.54253 12.5287 7.72864C11.4484 5.91857 10.3549 4.22998 9.5067 2.95054C9.30139 2.64084 9.1107 2.35547 8.93807 2.09818Z" fill="#007DED"/>
<path fill-rule="evenodd" clip-rule="evenodd" d="M3.82624 16.25C4.14448 16.25 4.40247 16.5092 4.40247 16.829C4.40247 19.4581 6.53376 21.592 9.17376 21.592C9.49201 21.592 9.75 21.8512 9.75 22.171C9.75 22.4908 9.49201 22.75 9.17376 22.75C5.90359 22.75 3.25 20.104 3.25 16.829C3.25 16.5092 3.50799 16.25 3.82624 16.25Z" fill="#007DED"/>
<path fill-rule="evenodd" clip-rule="evenodd" d="M6.99275 16.25C7.26489 16.25 7.4855 16.4715 7.4855 16.7447C7.4855 17.7188 8.27586 18.5105 9.25725 18.5105C9.52939 18.5105 9.75 18.732 9.75 19.0053C9.75 19.2785 9.52939 19.5 9.25725 19.5C7.73755 19.5 6.5 18.2713 6.5 16.7447C6.5 16.4715 6.72061 16.25 6.99275 16.25Z" fill="#007DED"/>
<path fill-rule="evenodd" clip-rule="evenodd" d="M23 13.651C23.9975 13.651 24.794 12.754 24.794 11.6637C24.794 11.5179 24.7114 11.117 24.445 10.4401C24.1994 9.81641 23.8613 9.11259 23.5049 8.42887C23.3347 8.10233 23.1632 7.7857 22.9997 7.49094C22.8363 7.78566 22.665 8.10221 22.4949 8.42866C22.1387 9.11245 21.8005 9.81631 21.555 10.4401C21.2886 11.117 21.206 11.5179 21.206 11.6637C21.206 12.754 22.0025 13.651 23 13.651ZM22.281 6.23524C21.3938 7.79229 20 10.4073 20 11.6637C20 13.5064 21.3431 15 23 15C24.6569 15 26 13.5064 26 11.6637C26 10.4072 24.6059 7.79176 23.7179 6.23477C23.6974 6.19889 23.6772 6.16358 23.6574 6.12886C23.4652 5.79355 23.3002 5.5134 23.1834 5.31504C23.0984 5.17058 23.0388 5.0695 23.013 5.02209C23.0101 5.01683 23.0076 5.01223 23.0056 5.0083C23.0044 5.00597 23.0033 5.00388 23.0024 5.00203C23 4.99932 22.9976 4.99932 22.9951 5.00203C22.9942 5.00392 22.9932 5.00605 22.992 5.00844C22.99 5.01223 22.9877 5.01665 22.985 5.02168C22.9584 5.07093 22.895 5.17891 22.8039 5.33385C22.6881 5.5311 22.5275 5.80446 22.3413 6.12967C22.3215 6.16428 22.3014 6.19948 22.281 6.23524Z" fill="#007DED"/>
<path fill-rule="evenodd" clip-rule="evenodd" d="M21.8015 18.9137C21.6486 18.6778 21.5154 18.4746 21.4086 18.3114C21.2645 18.0915 21.1683 17.9445 21.1357 17.8887C21.1354 17.8883 21.1352 17.888 21.135 17.8876C21.1331 17.8843 21.1314 17.8813 21.13 17.8787C21.1275 17.8738 21.12 17.8738 21.1175 17.8787C21.1161 17.8813 21.1145 17.8843 21.1126 17.8875C21.1123 17.888 21.1121 17.8884 21.1118 17.8889C21.0786 17.9463 20.9783 18.0996 20.8282 18.3291C20.7235 18.4893 20.5944 18.6866 20.447 18.9143C20.4273 18.9446 20.4074 18.9755 20.3872 19.0068C19.0249 21.1155 16.25 25.5872 16.25 27.6196C16.25 30.3163 18.4313 32.5 21.125 32.5C23.8187 32.5 26 30.3138 26 27.6196C26 25.5871 23.2247 21.115 21.8615 19.0064C21.8411 18.975 21.8211 18.9441 21.8015 18.9137ZM21.1245 20.1451C20.6966 20.8166 20.1828 21.6437 19.6753 22.5207C19.0902 23.532 18.5258 24.5882 18.1113 25.5361C17.6754 26.5331 17.4829 27.2414 17.4829 27.6196C17.4829 29.6239 19.1055 31.2586 21.125 31.2586C23.1441 31.2586 24.7671 29.6218 24.7671 27.6196C24.7671 27.2415 24.5746 26.5331 24.1387 25.5362C23.7242 24.5882 23.1597 23.5321 22.5744 22.5208C22.0667 21.6437 21.5528 20.8165 21.1245 20.1451Z" fill="#007DED"/>
</svg>
