<svg width="25" height="37" viewBox="0 0 25 37" fill="none" xmlns="http://www.w3.org/2000/svg">
<path fill-rule="evenodd" clip-rule="evenodd" d="M12.5 2.53419C16.3482 2.53419 19.4951 5.71299 19.4951 9.58112V17.4189C19.4951 21.287 16.3482 24.4658 12.5 24.4658C8.65179 24.4658 5.50491 21.287 5.50491 17.4189V9.58112C5.50491 5.71299 8.65179 2.53419 12.5 2.53419ZM22 9.58112C22 4.30481 17.7231 0 12.5 0C7.27687 0 3 4.30481 3 9.58112V17.4189C3 22.6952 7.27687 27 12.5 27C17.7231 27 22 22.6952 22 17.4189V9.58112Z" fill="#007DED"/>
<path d="M1.2525 18V18.0192C1.2525 23.964 6.2976 28.7995 12.5 28.7995C18.7024 28.7995 23.7475 23.9616 23.7475 18.0192V18H25V18.0192C25 24.6267 19.3913 30 12.5 30C5.60621 30 0 24.6242 0 18.0192V18H1.2525Z" fill="#007DED"/>
<path fill-rule="evenodd" clip-rule="evenodd" d="M25 18H23.4439V18.1705C23.4439 23.8782 18.5354 28.5264 12.5 28.5264C6.46459 28.5264 1.55608 23.8806 1.55608 18.1705V18.1518H1.39629V18H0V18.1705C0 24.6928 5.60661 30 12.5 30C19.3909 30 25 24.6951 25 18.1705V18ZM1.23736 18.3035C1.31289 24.1212 6.33609 28.8299 12.5 28.8299C18.6639 28.8299 23.6871 24.1189 23.7626 18.3035H24.6796C24.604 24.5984 19.1686 29.6965 12.5 29.6965C5.82902 29.6965 0.396 24.5962 0.320385 18.3035H1.23736Z" fill="#007DED"/>
<path fill-rule="evenodd" clip-rule="evenodd" d="M13 36V30H12V36H13Z" fill="#007DED"/>
<path fill-rule="evenodd" clip-rule="evenodd" d="M18 36C18 35.4477 17.5111 35 16.908 35H8.09198C7.4889 35 7 35.4477 7 36C7 36.5523 7.4889 37 8.09198 37H16.908C17.5111 37 18 36.5523 18 36Z" fill="#007DED"/>
</svg>
