<svg width="34" height="22" viewBox="0 0 34 22" fill="none" xmlns="http://www.w3.org/2000/svg">
<path fill-rule="evenodd" clip-rule="evenodd" d="M22.1267 2.00401C27.1054 2.00401 31.1413 6.03998 31.1413 11.0186C31.1413 15.9972 27.1054 20.0332 22.1267 20.0332C18.837 20.0332 15.9588 18.2709 14.3847 15.6389C14.3352 15.4535 14.2404 15.2866 14.1129 15.1507C13.4733 13.9129 13.1122 12.5079 13.1122 11.0186C13.1122 6.03998 17.1481 2.00401 22.1267 2.00401ZM11.8095 14.7883C11.5031 13.9502 11.296 13.0642 11.2024 12.1447C11.1309 12.1586 11.057 12.1659 10.9814 12.1659H1.14731C0.513669 12.1659 0 11.6523 0 11.0186C0 10.385 0.513669 9.87131 1.14731 9.87131H10.9814C11.057 9.87131 11.1309 9.87862 11.2024 9.89257C11.296 8.97305 11.5031 8.08708 11.8095 7.24889H7.04767C6.41402 7.24889 5.90036 6.73522 5.90036 6.10158C5.90036 5.46794 6.41402 4.95427 7.04767 4.95427H12.9481L12.9701 4.95448C13.6349 3.95274 14.4596 3.06638 15.4079 2.33186H14.2595C13.6259 2.33186 13.1122 1.81819 13.1122 1.18455C13.1122 0.550909 13.6259 0.0372372 14.2595 0.0372372H20.8156C20.9255 0.0372372 21.0319 0.0527077 21.1326 0.0815907C21.46 0.0522041 21.7916 0.0371952 22.1267 0.0371952C28.1916 0.0371952 33.1082 4.95374 33.1082 11.0186C33.1082 17.0835 28.1916 22 22.1267 22C21.9605 22 21.7951 21.9963 21.6306 21.989C21.5785 21.9962 21.5252 22 21.4711 22H13.276C12.6423 22 12.1287 21.4863 12.1287 20.8527C12.1287 20.2191 12.6423 19.7054 13.276 19.7054H15.4079C14.4597 18.9709 13.635 18.0846 12.9703 17.083H5.73661C5.10297 17.083 4.5893 16.5693 4.5893 15.9357C4.5893 15.302 5.10297 14.7883 5.73661 14.7883H11.8095ZM7.70336 22C7.06972 22 6.55605 21.4863 6.55605 20.8527C6.55605 20.219 7.06972 19.7054 7.70336 19.7054H9.99798C10.6316 19.7054 11.1453 20.219 11.1453 20.8527C11.1453 21.4863 10.6316 22 9.99798 22H7.70336ZM0 15.9357C0 16.5693 0.513669 17.083 1.14731 17.083C1.78095 17.083 2.29462 16.5693 2.29462 15.9357C2.29462 15.302 1.78095 14.7883 1.14731 14.7883C0.513669 14.7883 0 15.302 0 15.9357ZM8.35905 2.33186C7.72541 2.33186 7.21174 1.81819 7.21174 1.18455C7.21174 0.550905 7.72541 0.0372372 8.35905 0.0372372H10.9815C11.6151 0.0372372 12.1288 0.550905 12.1288 1.18455C12.1288 1.81819 11.6151 2.33186 10.9815 2.33186H8.35905Z" fill="#007DED"/>
</svg>
