<svg width="41" height="41" viewBox="0 0 41 41" fill="none" xmlns="http://www.w3.org/2000/svg">
<path fill-rule="evenodd" clip-rule="evenodd" d="M38.5882 20.5C38.5882 10.5102 30.4898 2.41184 20.5 2.41184C10.5101 2.41184 2.41176 10.5102 2.41176 20.5C2.41176 30.4899 10.5101 38.5882 20.5 38.5882C30.4898 38.5882 38.5882 30.4899 38.5882 20.5ZM40.9999 20.5C40.9999 9.17822 31.8218 7.62939e-05 20.5 7.62939e-05C9.17815 7.62939e-05 0 9.17822 0 20.5C0 31.8219 9.17815 41 20.5 41C31.8218 41 40.9999 31.8219 40.9999 20.5ZM21.2593 36.4444C21.2593 36.8637 20.9194 37.2037 20.5001 37.2037C20.0807 37.2037 19.7408 36.8637 19.7408 36.4444L19.7408 33.3856C13.2167 33.0072 7.99283 27.7832 7.61458 21.2591H4.55558C4.13625 21.2591 3.79632 20.9191 3.79632 20.4998C3.79632 20.0805 4.13625 19.7406 4.55558 19.7406H7.61463C7.99325 13.2168 13.217 7.9932 19.7408 7.61479L19.7408 4.55548C19.7408 4.13616 20.0807 3.79623 20.5001 3.79623C20.9194 3.79623 21.2593 4.13616 21.2593 4.55548V7.61479C27.7831 7.99323 33.0068 13.2168 33.3854 19.7406H36.4445C36.8638 19.7406 37.2038 20.0805 37.2038 20.4998C37.2038 20.9191 36.8638 21.2591 36.4445 21.2591H33.3855C33.0072 27.7832 27.7834 33.0072 21.2593 33.3856V36.4444ZM9.11116 20.5002C9.11116 26.7844 14.2008 31.8798 20.4828 31.8891L20.5001 31.8889L20.5173 31.8891C26.7992 31.8798 31.8889 26.7844 31.8889 20.5002C31.8889 14.2103 26.7899 9.11135 20.5 9.11135C14.2101 9.11135 9.11116 14.2103 9.11116 20.5002ZM17.0833 21.3542L20.5 30.75L23.9167 21.3542L20.5 22.3432L17.0833 21.3542ZM20.5 18.6568L17.0833 19.6458L20.5 10.25L23.9167 19.6458L20.5 18.6568Z" fill="#007DED"/>
</svg>
