<svg width="34" height="25" viewBox="0 0 34 25" fill="none" xmlns="http://www.w3.org/2000/svg">
<path d="M7.08333 7.63889C7.08333 6.48611 8.0325 5.55556 9.20833 5.55556C10.3842 5.55556 11.3333 6.48611 11.3333 7.63889C11.3333 8.79167 10.3842 9.72222 9.20833 9.72222C8.0325 9.72222 7.08333 8.79167 7.08333 7.63889ZM19.8333 8.33333L16.2633 13.8889L12.75 11.1667L7.08333 19.4444H26.9167L19.8333 8.33333ZM31.1667 7.18056V17.8194C31.1667 20.25 29.155 22.2222 26.6758 22.2222H7.32417C4.845 22.2222 2.83333 20.25 2.83333 17.8194V7.18056C2.83333 4.75 4.845 2.77778 7.32417 2.77778H26.6758C29.155 2.77778 31.1667 4.75 31.1667 7.18056ZM29.5092 0H4.49083C2.01167 0 0 1.97222 0 4.40278V20.5972C0 23.0278 2.01167 25 4.49083 25H29.5092C31.9883 25 34 23.0278 34 20.5972V4.40278C34 1.97222 31.9883 0 29.5092 0Z" fill="#007DED"/>
</svg>
