<svg width="31" height="31" viewBox="0 0 31 31" fill="none" xmlns="http://www.w3.org/2000/svg">
<path d="M11.625 21.9325V8.99L23.25 15.655L11.625 21.9325ZM16.7917 2.58333C23.3146 3.22917 28.4167 8.7575 28.4167 15.4613C28.4167 17.36 28.0033 19.1554 27.2671 20.77L29.5146 22.0746C30.4575 20.0596 31 17.8379 31 15.4613C31 7.32375 24.7483 0.65875 16.7917 0C16.7917 0 16.7917 2.59625 16.7917 2.58333ZM3.73292 20.7829C2.99667 19.1554 2.58333 17.36 2.58333 15.4742C2.58333 8.77042 7.68542 3.24208 14.2083 2.59625V0C6.25167 0.65875 0 7.32375 0 15.4742C0 17.8379 0.5425 20.0725 1.48542 22.0875C1.48542 22.0746 3.73292 20.7829 3.73292 20.7829ZM25.9625 23.0175C23.6246 26.2725 19.8142 28.4167 15.5 28.4167C11.1858 28.4167 7.37542 26.2854 5.0375 23.0175L2.77708 24.3221C5.58 28.3521 10.23 31 15.5 31C20.77 31 25.42 28.3521 28.2229 24.3221L25.9625 23.0175Z" fill="#007DED"/>
</svg>
