<svg width="29" height="36" viewBox="0 0 29 36" fill="none" xmlns="http://www.w3.org/2000/svg">
<path fill-rule="evenodd" clip-rule="evenodd" d="M14.5 2.57778C7.91554 2.57778 2.57778 7.91554 2.57778 14.5C2.57778 21.0845 7.91554 26.4222 14.5 26.4222C21.0845 26.4222 26.4222 21.0845 26.4222 14.5C26.4222 7.91554 21.0845 2.57778 14.5 2.57778ZM0 14.5C0 6.49187 6.49187 0 14.5 0C22.5081 0 29 6.49187 29 14.5C29 22.5081 22.5081 29 14.5 29C6.49187 29 0 22.5081 0 14.5Z" fill="#007DED"/>
<path fill-rule="evenodd" clip-rule="evenodd" d="M20.3216 7.28837L21.3383 6.33667C23.6669 8.38848 25.1176 11.2916 25.1199 14.5027C25.1198 17.709 23.6693 20.6118 21.3384 22.6636L20.3216 21.7118C22.3637 19.909 23.6512 17.3469 23.6512 14.5001C23.6512 11.6533 22.3637 9.09117 20.3216 7.28837Z" fill="#007DED"/>
<path d="M15.08 27.84H13.92V33.64H15.08V27.84Z" fill="#007DED"/>
<path d="M20.9118 33.64H8.08819C7.46769 33.64 6.96001 34.0746 6.96001 34.6058V34.9942C6.96001 35.5254 7.46769 35.96 8.08819 35.96H20.9118C21.5323 35.96 22.04 35.5254 22.04 34.9942V34.6058C22.0423 34.0746 21.5347 33.64 20.9118 33.64Z" fill="#007DED"/>
<path d="M16.24 16.8964C16.24 17.8165 15.4598 18.56 14.5 18.56C13.5376 18.56 12.76 17.8141 12.76 16.8964C12.76 15.9763 14.5 9.28003 14.5 9.28003C14.5 9.28003 16.24 15.9763 16.24 16.8964Z" fill="#007DED"/>
<path fill-rule="evenodd" clip-rule="evenodd" d="M13.92 5.80001V2.32001H15.08V5.80001H13.92Z" fill="#007DED"/>
<path fill-rule="evenodd" clip-rule="evenodd" d="M5.48 15.6399L2 15.6399L2 14.4799L5.48 14.4799L5.48 15.6399Z" fill="#007DED"/>
</svg>
