<svg width="37" height="37" viewBox="0 0 37 37" fill="none" xmlns="http://www.w3.org/2000/svg">
<path fill-rule="evenodd" clip-rule="evenodd" d="M26.4477 1.78239C24.0501 0.641361 21.3723 0 18.5483 0C8.37286 0 0.0966377 8.29791 0.0966377 18.4975C0.0966377 22.8653 1.61403 26.8825 4.14797 30.0495C4.40335 29.6816 4.70087 29.346 5.03559 29.0477C2.76943 26.1342 1.41568 22.47 1.41568 18.4975C1.41568 9.02628 9.1018 1.32001 18.5483 1.32001C21.0922 1.32001 23.5071 1.87934 25.679 2.88115C25.8923 2.48341 26.1501 2.1155 26.4477 1.78239ZM30.6776 10.9378C33.6166 10.9378 36.0083 8.53987 36.0083 5.59313C36.0083 2.64639 33.6166 0.248462 30.6776 0.248462C27.7386 0.248462 25.3469 2.64639 25.3469 5.59313C25.3469 8.53987 27.7386 10.9378 30.6776 10.9378ZM30.6776 1.90737C32.7054 1.90737 34.3537 3.56004 34.3537 5.59313C34.3537 7.62623 32.7054 9.2789 30.6776 9.2789C28.6498 9.2789 27.0015 7.62623 27.0015 5.59313C27.0015 3.56004 28.6498 1.90737 30.6776 1.90737ZM12.082 13.9211C13.5174 13.9211 14.6854 12.75 14.6854 11.3109C14.6854 9.8718 13.5174 8.70072 12.082 8.70072C10.6467 8.70072 9.47867 9.8718 9.47867 11.3109C9.47867 12.75 10.6452 13.9211 12.082 13.9211ZM12.082 9.51088C13.0723 9.51088 13.8774 10.318 13.8774 11.3109C13.8774 12.3038 13.0723 13.1109 12.082 13.1109C11.0917 13.1109 10.2867 12.3038 10.2867 11.3109C10.2867 10.318 11.0917 9.51088 12.082 9.51088ZM12.206 33.3111C12.206 35.0929 10.7043 36.5428 8.85885 36.5428C7.01341 36.5428 5.51167 35.0929 5.51167 33.3111C5.51167 31.5294 7.01341 30.0795 8.85885 30.0795C10.7043 30.0795 12.206 31.5294 12.206 33.3111ZM11.1671 33.3111C11.1671 32.0818 10.1321 31.0825 8.85885 31.0825C7.58559 31.0825 6.54863 32.0818 6.55058 33.3111C6.55058 34.5404 7.58559 35.5397 8.85885 35.5397C10.1321 35.5397 11.1671 34.5404 11.1671 33.3111ZM18.5483 22.7607C20.8913 22.7607 22.798 20.8491 22.798 18.4999C22.798 16.1508 20.8913 14.2391 18.5483 14.2391C16.2052 14.2391 14.2986 16.1508 14.2986 18.4999C14.2986 20.8491 16.2052 22.7607 18.5483 22.7607ZM18.5483 15.5616C20.1648 15.5616 21.4789 16.8791 21.4789 18.4999C21.4789 20.1207 20.1648 21.4383 18.5483 21.4383C16.9317 21.4383 15.6176 20.1207 15.6176 18.4999C15.6176 16.8791 16.9317 15.5616 18.5483 15.5616ZM8.90097 18.4999C8.90097 17.5901 9.0299 16.7076 9.26544 15.8723C8.8489 15.6809 8.45716 15.4423 8.1026 15.1564C7.76788 16.2104 7.58441 17.334 7.58441 18.4974C7.58441 24.558 12.5035 29.49 18.5483 29.49C24.5931 29.49 29.5122 24.5605 29.5122 18.4974C29.5122 12.4368 24.5955 7.5048 18.5483 7.5048C17.8417 7.5048 17.1524 7.57441 16.483 7.70367C16.7185 8.08899 16.9094 8.50413 17.0483 8.94413C17.5367 8.86707 18.0375 8.8273 18.5483 8.8273C23.8691 8.8273 28.1956 13.1677 28.1956 18.4999C28.1956 23.8346 23.8666 28.1725 18.5483 28.1725C13.2275 28.1725 8.90097 23.8322 8.90097 18.4999ZM18.5483 35.6798C27.9948 35.6798 35.6834 27.9735 35.6834 18.4998C35.6834 15.5888 34.957 12.8444 33.6776 10.4405C34.0594 10.2044 34.4115 9.92596 34.7264 9.60776C36.1744 12.2478 37 15.2781 37 18.4998C37 28.7019 28.7238 36.9998 18.5483 36.9998C16.85 36.9998 15.2061 36.7686 13.6441 36.3361C13.8796 35.9582 14.0706 35.553 14.2144 35.123C15.5979 35.4834 17.0508 35.6798 18.5483 35.6798Z" fill="#007DED"/>
</svg>
