<svg width="13" height="38" viewBox="0 0 13 38" fill="none" xmlns="http://www.w3.org/2000/svg">
<path d="M6.49968 0.670233C7.92377 0.670233 9.08431 1.83867 9.08431 3.27744V24.6691C9.08431 25.5158 9.46081 26.3022 10.1142 26.825C11.525 27.951 12.3356 29.6333 12.3356 31.4451C12.3356 34.6913 9.71773 37.332 6.49968 37.332C6.37566 37.332 6.2472 37.3275 6.12317 37.3208C3.1266 37.1287 0.730233 34.6064 0.666005 31.5747C0.626139 29.7025 1.44117 27.9644 2.90513 26.8071C3.53855 26.3067 3.91506 25.5068 3.91506 24.6668V3.27744C3.91506 1.83867 5.07559 0.670233 6.49968 0.670233ZM6.49968 0C4.71237 0 3.25063 1.47451 3.25063 3.27744V24.6668C3.25063 25.2924 2.98264 25.8956 2.4954 26.2799C0.940635 27.5064 -0.0449327 29.4322 0.00157729 31.5881C0.0746644 34.9616 2.74345 37.7744 6.08109 37.9866C6.22062 37.9955 6.36015 38 6.49968 38C10.0898 38 13 35.0644 13 31.4429C13 29.3562 12.0322 27.4974 10.5261 26.2977C10.0322 25.9045 9.74873 25.3035 9.74873 24.6691V3.27744C9.74652 1.47451 8.28478 0 6.49968 0Z" fill="#007DED"/>
<path d="M6.5 15C5.67444 15 5 15.6048 5 16.345V30.655C5 31.3952 5.67444 32 6.5 32C7.32556 32 8 31.3952 8 30.655V16.3471C8 15.6068 7.32556 15 6.5 15Z" fill="#007DED"/>
<path d="M6.5 36C8.98528 36 11 33.9853 11 31.5C11 29.0147 8.98528 27 6.5 27C4.01472 27 2 29.0147 2 31.5C2 33.9853 4.01472 36 6.5 36Z" fill="#007DED"/>
<path fill-rule="evenodd" clip-rule="evenodd" d="M7 9H3.5V8H7V9Z" fill="#007DED"/>
<path fill-rule="evenodd" clip-rule="evenodd" d="M6 12H3.5V11H6V12Z" fill="#007DED"/>
<path fill-rule="evenodd" clip-rule="evenodd" d="M6 15H3.5V14H6V15Z" fill="#007DED"/>
</svg>
