<svg width="40" height="22" viewBox="0 0 54 22" fill="none" xmlns="http://www.w3.org/2000/svg">
<rect x="0.5" y="0.5" width="53" height="21" rx="4.5" stroke="#007DED"/>
<circle cx="8" cy="11" r="3.5" stroke="#007DED"/>
<circle cx="46" cy="11" r="3.5" stroke="#007DED"/>
<mask id="path-4-inside-1" fill="white">
<path fill-rule="evenodd" clip-rule="evenodd" d="M17.144 3.95654C15.3724 3.95654 13.9866 5.48354 14.158 7.24679L14.7246 13.0756C14.9985 15.8938 17.3673 18.0435 20.1988 18.0435H22.054H32.0956H33.9508C36.7823 18.0435 39.1511 15.8938 39.425 13.0756L39.9916 7.24679C40.163 5.48354 38.7772 3.95654 37.0057 3.95654H32.0956H22.054H17.144Z"/>
</mask>
<path d="M14.158 7.24679L13.1627 7.34353L14.158 7.24679ZM14.7246 13.0756L15.7199 12.9789L14.7246 13.0756ZM39.425 13.0756L40.4203 13.1724V13.1724L39.425 13.0756ZM39.9916 7.24679L38.9963 7.15004V7.15004L39.9916 7.24679ZM15.1533 7.15004C15.0391 5.97454 15.9629 4.95654 17.144 4.95654V2.95654C14.7819 2.95654 12.9342 4.99255 13.1627 7.34353L15.1533 7.15004ZM15.7199 12.9789L15.1533 7.15004L13.1627 7.34353L13.7293 13.1724L15.7199 12.9789ZM20.1988 17.0435C17.8822 17.0435 15.9441 15.2847 15.7199 12.9789L13.7293 13.1724C14.053 16.5029 16.8525 19.0435 20.1988 19.0435V17.0435ZM22.054 17.0435H20.1988V19.0435H22.054V17.0435ZM22.054 19.0435H32.0956V17.0435H22.054V19.0435ZM32.0956 19.0435H33.9508V17.0435H32.0956V19.0435ZM33.9508 19.0435C37.2971 19.0435 40.0966 16.5029 40.4203 13.1724L38.4297 12.9789C38.2056 15.2847 36.2675 17.0435 33.9508 17.0435V19.0435ZM40.4203 13.1724L40.9869 7.34353L38.9963 7.15004L38.4297 12.9789L40.4203 13.1724ZM40.9869 7.34353C41.2154 4.99255 39.3678 2.95654 37.0057 2.95654V4.95654C38.1867 4.95654 39.1106 5.97454 38.9963 7.15004L40.9869 7.34353ZM37.0057 2.95654H32.0956V4.95654H37.0057V2.95654ZM32.0956 2.95654H22.054V4.95654H32.0956V2.95654ZM17.144 4.95654H22.054V2.95654H17.144V4.95654Z" fill="#007DED" mask="url(#path-4-inside-1)"/>
<circle cx="18.5" cy="8.5" r="1" fill="#007DED" stroke="#007DED"/>
<circle cx="23.5" cy="8.5" r="1" fill="#007DED" stroke="#007DED"/>
<circle cx="27.5" cy="8.5" r="1" fill="#007DED" stroke="#007DED"/>
<circle cx="32.5" cy="8.5" r="1" fill="#007DED" stroke="#007DED"/>
<circle cx="19.5" cy="13.5" r="1" fill="#007DED" stroke="#007DED"/>
<circle cx="24.5" cy="13.5" r="1" fill="#007DED" stroke="#007DED"/>
<circle cx="29.5" cy="13.5" r="1" fill="#007DED" stroke="#007DED"/>
<circle cx="34.5" cy="13.5" r="1" fill="#007DED" stroke="#007DED"/>
<circle cx="36.5" cy="8.5" r="1" fill="#007DED" stroke="#007DED"/>
</svg>
