<svg width="71" height="71" viewBox="0 0 71 71" fill="none" xmlns="http://www.w3.org/2000/svg">
<path fill-rule="evenodd" clip-rule="evenodd" d="M35.5 69.0811C16.9537 69.0811 1.91891 54.0463 1.91891 35.5C1.91891 16.9537 16.9537 1.91892 35.5 1.91892C54.0463 1.91892 69.0811 16.9537 69.0811 35.5C69.0811 54.0463 54.0463 69.0811 35.5 69.0811ZM35.5 71C15.8939 71 0 55.1061 0 35.5C0 15.8939 15.8939 0 35.5 0C55.1061 0 71 15.8939 71 35.5C71 55.1061 55.1061 71 35.5 71Z" fill="#B8DAFA"/>
<rect x="8.5" y="25.5" width="53" height="21" rx="4.5" stroke="#88C2F6"/>
<circle cx="16" cy="36" r="3.5" stroke="#88C2F6"/>
<circle cx="54" cy="36" r="3.5" stroke="#88C2F6"/>
<mask id="path-5-inside-1" fill="white">
<path fill-rule="evenodd" clip-rule="evenodd" d="M25.144 28.9565C23.3724 28.9565 21.9866 30.4835 22.158 32.2468L22.7246 38.0756C22.9985 40.8938 25.3673 43.0435 28.1988 43.0435H30.054H40.0956H41.9508C44.7823 43.0435 47.1511 40.8938 47.425 38.0756L47.9916 32.2468C48.163 30.4835 46.7772 28.9565 45.0057 28.9565H40.0956H30.054H25.144Z"/>
</mask>
<path d="M22.158 32.2468L21.1627 32.3435L22.158 32.2468ZM22.7246 38.0756L23.7199 37.9789L22.7246 38.0756ZM47.425 38.0756L48.4203 38.1724V38.1724L47.425 38.0756ZM47.9916 32.2468L46.9963 32.15V32.15L47.9916 32.2468ZM23.1533 32.15C23.0391 30.9745 23.9629 29.9565 25.144 29.9565V27.9565C22.7819 27.9565 20.9342 29.9925 21.1627 32.3435L23.1533 32.15ZM23.7199 37.9789L23.1533 32.15L21.1627 32.3435L21.7293 38.1724L23.7199 37.9789ZM28.1988 42.0435C25.8822 42.0435 23.9441 40.2847 23.7199 37.9789L21.7293 38.1724C22.053 41.5029 24.8525 44.0435 28.1988 44.0435V42.0435ZM30.054 42.0435H28.1988V44.0435H30.054V42.0435ZM30.054 44.0435H40.0956V42.0435H30.054V44.0435ZM40.0956 44.0435H41.9508V42.0435H40.0956V44.0435ZM41.9508 44.0435C45.2971 44.0435 48.0966 41.5029 48.4203 38.1724L46.4297 37.9789C46.2056 40.2847 44.2675 42.0435 41.9508 42.0435V44.0435ZM48.4203 38.1724L48.9869 32.3435L46.9963 32.15L46.4297 37.9789L48.4203 38.1724ZM48.9869 32.3435C49.2154 29.9925 47.3678 27.9565 45.0057 27.9565V29.9565C46.1867 29.9565 47.1106 30.9745 46.9963 32.15L48.9869 32.3435ZM45.0057 27.9565H40.0956V29.9565H45.0057V27.9565ZM40.0956 27.9565H30.054V29.9565H40.0956V27.9565ZM25.144 29.9565H30.054V27.9565H25.144V29.9565Z" fill="#88C2F6" mask="url(#path-5-inside-1)"/>
<circle cx="26.5" cy="33.5" r="1" fill="#88C2F6" stroke="#88C2F6"/>
<circle cx="31.5" cy="33.5" r="1" fill="#88C2F6" stroke="#88C2F6"/>
<circle cx="35.5" cy="33.5" r="1" fill="#88C2F6" stroke="#88C2F6"/>
<circle cx="40.5" cy="33.5" r="1" fill="#88C2F6" stroke="#88C2F6"/>
<circle cx="27.5" cy="38.5" r="1" fill="#88C2F6" stroke="#88C2F6"/>
<circle cx="32.5" cy="38.5" r="1" fill="#88C2F6" stroke="#88C2F6"/>
<circle cx="37.5" cy="38.5" r="1" fill="#88C2F6" stroke="#88C2F6"/>
<circle cx="42.5" cy="38.5" r="1" fill="#88C2F6" stroke="#88C2F6"/>
<circle cx="44.5" cy="33.5" r="1" fill="#88C2F6" stroke="#88C2F6"/>
</svg>
