<svg width="34" height="20" viewBox="0 0 34 20" fill="none" xmlns="http://www.w3.org/2000/svg">
<path fill-rule="evenodd" clip-rule="evenodd" d="M24.3941 10.1892C24.3941 5.81954 20.8518 2.27724 16.4822 2.27724C12.1125 2.27724 8.57023 5.81954 8.57023 10.1892C8.57023 14.5588 12.1125 18.1011 16.4822 18.1011C20.8518 18.1011 24.3941 14.5588 24.3941 10.1892ZM26.293 10.1892C26.293 4.77083 21.9005 0.378378 16.4822 0.378378C11.0638 0.378378 6.67136 4.77083 6.67136 10.1892C6.67136 15.6076 11.0638 20 16.4822 20C21.9005 20 26.293 15.6076 26.293 10.1892ZM28.3067 10.3733C28.3067 8.61991 28.0836 6.92145 27.665 5.29847C27.49 4.61223 28.0871 3.97402 28.7836 4.10784C29.1507 4.17646 29.4527 4.44753 29.5453 4.81124C30.0017 6.59205 30.2487 8.45521 30.2487 10.3767C30.2487 12.2982 30.0017 14.1614 29.5453 15.9422C29.4527 16.3059 29.1507 16.5769 28.7836 16.6456C28.0871 16.776 27.4866 16.1412 27.665 15.4549C28.0836 13.8251 28.3067 12.1266 28.3067 10.3733ZM31.9521 10.2566C31.9521 9.30294 31.8534 8.37272 31.6715 7.47367C31.5675 6.96439 32.0171 6.51226 32.5289 6.60841C32.82 6.66297 33.0538 6.88384 33.1136 7.17486C33.3162 8.17004 33.428 9.2016 33.428 10.2566C33.428 11.3115 33.3188 12.3431 33.1136 13.3383C33.0538 13.6267 32.82 13.8501 32.5289 13.9047C32.0171 14.0008 31.5675 13.5487 31.6715 13.0394C31.8534 12.1404 31.9521 11.2102 31.9521 10.2566ZM1.38447 12.1961C1.24111 11.4874 1.16328 10.7542 1.16328 10.0026C1.16328 9.25099 1.24111 8.51984 1.38447 7.80917C1.46639 7.40776 1.11208 7.0514 0.70862 7.12718C0.47924 7.17019 0.294917 7.34632 0.247812 7.57365C0.0860172 8.35805 0 9.17112 0 10.0026C0 10.8341 0.0880653 11.6472 0.247812 12.4316C0.294917 12.661 0.47924 12.835 0.70862 12.8781C1.11208 12.9538 1.46639 12.5975 1.38447 12.1961ZM4.7945 9.94097C4.7945 11.6943 5.01753 13.3928 5.43614 15.0158C5.61113 15.702 5.0141 16.3402 4.31756 16.2064C3.95042 16.1378 3.64847 15.8667 3.55582 15.503C3.09947 13.7222 2.85242 11.859 2.85242 9.93754C2.85242 8.01605 3.09947 6.15289 3.55582 4.37208C3.64847 4.00837 3.95042 3.7373 4.31756 3.66868C5.0141 3.53829 5.61456 4.17307 5.43614 4.85932C5.01753 6.48915 4.7945 8.19104 4.7945 9.94097Z" fill="#007DED"/>
</svg>
