<svg width="46" height="40" viewBox="0 0 46 40" fill="none" xmlns="http://www.w3.org/2000/svg">
<path d="M2.35543 11.9676C1.05906 11.9676 0 13.0192 0 14.3063V25.6902C0 26.9773 1.05906 28.0288 2.35543 28.0288C3.65181 28.0288 4.71087 26.9773 4.71087 25.6902V14.3063C4.71087 13.0192 3.65181 11.9676 2.35543 11.9676Z" fill="white"/>
<path d="M10.6153 6.46744C9.31895 6.46744 8.25989 7.51896 8.25989 8.80611V31.194C8.25989 32.4812 9.31895 33.5327 10.6153 33.5327C11.9117 33.5327 12.9708 32.4812 12.9708 31.194V8.80611C12.9708 7.51896 11.9082 6.46744 10.6153 6.46744Z" fill="white"/>
<path d="M18.8719 0C17.5755 0 16.5165 1.05152 16.5165 2.33867V37.6578C16.5165 38.945 17.5755 39.9965 18.8719 39.9965C20.1683 39.9965 21.2273 38.945 21.2273 37.6578V2.33867C21.2273 1.05152 20.1683 0 18.8719 0Z" fill="white"/>
<path d="M27.1283 6.46744C25.8319 6.46744 24.7728 7.51896 24.7728 8.80611V31.194C24.7728 32.4812 25.8319 33.5327 27.1283 33.5327C28.4246 33.5327 29.4837 32.4812 29.4837 31.194V8.80611C29.4872 7.51896 28.4246 6.46744 27.1283 6.46744Z" fill="white"/>
<path d="M35.3881 11.9676C34.0918 11.9676 33.0327 13.0192 33.0327 14.3063V25.6902C33.0327 26.9773 34.0918 28.0288 35.3881 28.0288C36.6845 28.0288 37.7436 26.9773 37.7436 25.6902V14.3063C37.7436 13.0192 36.6845 11.9676 35.3881 11.9676Z" fill="white"/>
<path d="M43.6445 15.4141C42.3481 15.4141 41.2891 16.4656 41.2891 17.7527V22.2472C41.2891 23.5344 42.3481 24.5859 43.6445 24.5859C44.9409 24.5859 45.9999 23.5344 45.9999 22.2472V17.7527C45.9999 16.4656 44.9409 15.4141 43.6445 15.4141Z" fill="white"/>
</svg>
