<svg xmlns="http://www.w3.org/2000/svg" viewBox="0 0 304.6 96.9"><g fill="#fff"><path d="M69.9 63.5c-.2.9-.8 1.7-1.6 2.2l-22.6 13c-.7.4-1.4.8-2 1.2-.4.2-.9.3-1.4.3-.2 0-.5 0-.7-.1-.4-.1-.8-.2-1.2-.5l-24-13.8s-.2-.1-.5-.3l-.5-.5c-.4-.5-.7-1.1-.8-1.8v-29c0-.4.1-.7.2-1 .3-.9.9-1.6 1.7-2l24-13.8s.3-.2.7-.4c.1 0 .4-.1.4-.1.2 0 .4-.1.7-.1.7 0 1.3.2 1.9.6l24 13.8h.1c.3.2.6.4.9.7.5.6.8 1.4.8 2.2V63c0 .2-.1.4-.1.5M82 22.1c-.1-.1-.1-.1-.2-.1L45.2.9c-.8-.5-1.8-.9-2.9-.9-1 0-2 .3-2.8.8L2.9 22c-1.7.9-2.9 2.6-2.9 4.7v43.6c0 2 1.2 3.8 2.9 4.7l36.6 21.1c.8.5 1.8.8 2.8.8 1.1 0 2-.3 2.9-.9l36.7-21.2s.1 0 .1-.1h.1c1.6-.9 2.6-2.6 2.6-4.5V26.6c-.1-1.9-1.1-3.6-2.7-4.5"/><path d="M43 49.2h9.3c.3 1.2 1.4 2 2.6 2 1.5 0 2.7-1.2 2.7-2.7 0-1.5-1.2-2.8-2.7-2.8-1.3 0-2.3.9-2.6 2.1H43v-4h4.3s.4 0 .6-.1c.4-.3 1.4-1.3 1.4-1.3l2.7-2.7c.4.2.8.3 1.3.3 1.5 0 2.7-1.2 2.7-2.7 0-1.5-1.2-2.7-2.7-2.7-1.5 0-2.7 1.2-2.7 2.7 0 .5.2 1 .4 1.5L47.8 42s-.4.4-.6.4H43v-6.1c1.8-.3 3.1-1.9 3.1-3.8 0-2.1-1.7-3.8-3.8-3.8-2.1 0-3.9 1.7-3.9 3.8 0 1.9 1.4 3.4 3.1 3.8v6.1h-4.1c-.2-.1-.6-.4-.6-.4l-3.2-3.2c.3-.4.4-.9.4-1.5 0-1.5-1.2-2.7-2.7-2.7-1.5 0-2.7 1.2-2.7 2.7 0 1.5 1.2 2.7 2.7 2.7.5 0 .9-.1 1.3-.3l2.7 2.7s1 1 1.4 1.3c.2.2.6.1.6.1h4.3v4h-9.3c-.3-1.2-1.4-2.1-2.6-2.1-1.5 0-2.7 1.3-2.7 2.8 0 1.5 1.2 2.7 2.7 2.7 1.3 0 2.3-.8 2.6-2h9.3v3.9h-4.3s-.4 0-.6.1c-.4.3-1.4 1.3-1.4 1.3l-2.7 2.7c-.4-.2-.8-.3-1.3-.3-1.5 0-2.7 1.2-2.7 2.7 0 1.5 1.2 2.7 2.7 2.7 1.5 0 2.7-1.2 2.7-2.7 0-.5-.2-1-.4-1.5l3.2-3.2s.4-.4.6-.4h4.2v6.1c-1.8.3-3.1 1.9-3.1 3.8 0 2.1 1.7 3.8 3.9 3.8 2.1 0 3.8-1.7 3.8-3.8 0-1.9-1.4-3.4-3.1-3.8v-6.1h4.2c.2.1.6.4.6.4l3.2 3.2c-.3.4-.4.9-.4 1.5 0 1.5 1.2 2.7 2.7 2.7 1.5 0 2.7-1.2 2.7-2.7 0-1.5-1.2-2.7-2.7-2.7-.5 0-.9.1-1.3.3l-2.7-2.7s-1-1-1.4-1.3c-.2-.2-.6-.1-.6-.1h-4.3v-2.3zm12-2.1c.7 0 1.3.6 1.3 1.3 0 .7-.6 1.3-1.3 1.3-.7 0-1.3-.6-1.3-1.3-.1-.7.5-1.3 1.3-1.3zm-1.7-11.2c.7 0 1.3.6 1.3 1.3 0 .7-.6 1.3-1.3 1.3-.7 0-1.3-.6-1.3-1.3 0-.7.6-1.3 1.3-1.3zm-22 2.7c-.7 0-1.3-.6-1.3-1.3 0-.7.6-1.3 1.3-1.3.7 0 1.3.6 1.3 1.3 0 .7-.6 1.3-1.3 1.3zm-1.7 11.2c-.7 0-1.3-.6-1.3-1.3 0-.7.6-1.3 1.3-1.3.7 0 1.3.6 1.3 1.3.1.7-.5 1.3-1.3 1.3zM31.3 61c-.7 0-1.3-.6-1.3-1.3 0-.7.6-1.3 1.3-1.3.7 0 1.3.6 1.3 1.3 0 .7-.6 1.3-1.3 1.3zm22-2.7c.7 0 1.3.6 1.3 1.3 0 .7-.6 1.3-1.3 1.3-.7 0-1.3-.6-1.3-1.3 0-.7.6-1.3 1.3-1.3zm-11 8.5c-1.3 0-2.4-1.1-2.4-2.4 0-1.3 1.1-2.4 2.4-2.4 1.3 0 2.4 1.1 2.4 2.4 0 1.3-1.1 2.4-2.4 2.4zm0-36.7c1.3 0 2.4 1.1 2.4 2.4 0 1.3-1.1 2.4-2.4 2.4-1.3 0-2.4-1.1-2.4-2.4 0-1.3 1.1-2.4 2.4-2.4z"/></g><path d="M145.7 65.6V42.3c0-5.1-2.1-7.6-7.6-7.6-2.3 0-4.2.4-6 1.1v29.7h-5.4v-32c3.1-1.4 7.3-2.4 11.5-2.4 9.1 0 13.1 3.9 13.1 11.1v23.3c-.1.1-5.6.1-5.6.1zM166.9 65.9c-4.8 0-8.1-2.9-8.1-8.5V35.3h-3.9v-3.4h3.9v-7.8l5.5-1.7v9.5h5.9v3.4h-5.9v22.1c0 2.9 1.4 4.7 4.2 4.7.6 0 1.2-.1 1.7-.2v3.5c-.9.3-2 .5-3.3.5M213.2 65.6V42.1c0-4.4-2-7.3-6.9-7.3-2.8 0-4.9 1.3-6.6 3.2v27.7h-5.5V41.2c0-3.9-2.1-6.5-7.1-6.5-2.6 0-4.4.3-6.3 1.1v29.7h-5.4v-32c3.3-1.4 7-2.4 11.6-2.4 5.1 0 7.9 1.4 10.1 3.9 2.3-2.4 5.7-3.9 9.7-3.9 8.3 0 11.9 4.4 11.9 10.9v23.5h-5.5zM226.1 43.2V31.9h5.5v33.7h-5.5v-12zM249.8 66.2c-8.1 0-13.1-7.2-13.1-17.5s5-17.5 13.1-17.5c3.1 0 5.8.8 7.6 2.2l-1.3 3.3c-1.3-1-3.3-1.7-5.3-1.7-5.4 0-8.4 5.8-8.4 13.6 0 7.6 3.1 13.7 8.4 13.7 2 0 4-.6 5.3-1.6l1.4 3.4c-1.9 1.3-4.6 2.1-7.7 2.1M275.9 35.6c-1-.4-2.2-.6-3.4-.6-1.5 0-3.1.3-4.3.9v29.7h-5.5v-32c2.9-1.4 6.7-2.4 11.5-2.4 1.3 0 2.6.1 2.9.2zM291.3 34.7c-5.9 0-7.8 6.3-7.8 13.8 0 7.5 1.9 14 7.8 14s7.8-6.4 7.8-14c0-7.4-1.9-13.8-7.8-13.8m0 31.5c-9.1 0-13.3-7.4-13.3-17.5s4.2-17.5 13.3-17.5c9.1 0 13.3 7.4 13.3 17.5 0 10.2-4.2 17.5-13.3 17.5M114.1 61.9c-1.3.7-3.4 1.1-5.6 1.1-5.3 0-8.1-2.6-8.1-7.1 0-5.9 5.1-8.3 13.7-9.3zm-6.7-30.7c-3.6 0-7.4 1-10.3 2.4l1.3 3.4c2.3-1.3 5.5-2.1 8.5-2.1 4.7 0 7.2 2.1 7.2 6.7v2.1c-10.9 1.1-18.9 4.2-18.9 12.3 0 6.7 4.8 10.2 12.8 10.2 4.5 0 8.5-.9 11.2-2.4V42.2c0-7.5-4.5-11-11.8-11" fill="#fff"/></svg>
