<svg width="1128" height="753" viewBox="0 0 1128 753" fill="none" xmlns="http://www.w3.org/2000/svg">
<mask id="path-1-inside-1" fill="white">
<path fill-rule="evenodd" clip-rule="evenodd" d="M191 500H182V611V615V620L595 620V611L191 611V500Z"/>
</mask>
<path fill-rule="evenodd" clip-rule="evenodd" d="M191 500H182V611V615V620L595 620V611L191 611V500Z" fill="white"/>
<path d="M182 500V499H181V500H182ZM191 500H192V499H191V500ZM182 620H181V621H182L182 620ZM595 620V621H596V620H595ZM595 611H596V610H595V611ZM191 611H190V612H191V611ZM182 501H191V499H182V501ZM183 611V500H181V611H183ZM183 615V611H181V615H183ZM183 620V615H181V620H183ZM595 619L182 619L182 621L595 621V619ZM594 611V620H596V611H594ZM191 612L595 612V610L191 610V612ZM190 500V611H192V500H190Z" fill="#007DED" mask="url(#path-1-inside-1)"/>
<mask id="path-3-inside-2" fill="white">
<path fill-rule="evenodd" clip-rule="evenodd" d="M202 498H194V599V604V608L595 608V599L202 599V498Z"/>
</mask>
<path fill-rule="evenodd" clip-rule="evenodd" d="M202 498H194V599V604V608L595 608V599L202 599V498Z" fill="white"/>
<path d="M194 498V497H193V498H194ZM202 498H203V497H202V498ZM194 608H193V609H194L194 608ZM595 608V609H596V608H595ZM595 599H596V598H595V599ZM202 599H201V600H202V599ZM194 499H202V497H194V499ZM195 599V498H193V599H195ZM195 604V599H193V604H195ZM195 608V604H193V608H195ZM595 607L194 607L194 609L595 609V607ZM594 599V608H596V599H594ZM202 600L595 600V598L202 598V600ZM201 498V599H203V498H201Z" fill="#007DED" mask="url(#path-3-inside-2)"/>
<mask id="path-5-inside-3" fill="white">
<path fill-rule="evenodd" clip-rule="evenodd" d="M214 498H205V596H206H214L595 596V587L214 587V498Z"/>
</mask>
<path fill-rule="evenodd" clip-rule="evenodd" d="M214 498H205V596H206H214L595 596V587L214 587V498Z" fill="white"/>
<path d="M205 498V497H204V498H205ZM214 498H215V497H214V498ZM205 596H204V597H205V596ZM214 596V597V596ZM595 596V597H596V596H595ZM595 587H596V586H595V587ZM214 587H213V588H214V587ZM205 499H214V497H205V499ZM206 596V498H204V596H206ZM206 595H205V597H206V595ZM214 595H206V597H214V595ZM595 595L214 595V597L595 597V595ZM594 587V596H596V587H594ZM214 588L595 588V586L214 586V588ZM213 498V587H215V498H213Z" fill="#007DED" mask="url(#path-5-inside-3)"/>
<mask id="path-7-inside-4" fill="white">
<path fill-rule="evenodd" clip-rule="evenodd" d="M226 498H217V575V579V584L595 584V575L226 575V498Z"/>
</mask>
<path fill-rule="evenodd" clip-rule="evenodd" d="M226 498H217V575V579V584L595 584V575L226 575V498Z" fill="white"/>
<path d="M217 498V497H216V498H217ZM226 498H227V497H226V498ZM217 584H216V585H217L217 584ZM595 584V585H596V584H595ZM595 575H596V574H595V575ZM226 575H225V576H226V575ZM217 499H226V497H217V499ZM218 575V498H216V575H218ZM218 579V575H216V579H218ZM218 584V579H216V584H218ZM595 583L217 583L217 585L595 585V583ZM594 575V584H596V575H594ZM226 576L595 576V574L226 574V576ZM225 498V575H227V498H225Z" fill="#007DED" mask="url(#path-7-inside-4)"/>
<mask id="path-9-inside-5" fill="white">
<path fill-rule="evenodd" clip-rule="evenodd" d="M237 498H228V563V566V572L595 572V563L237 563V498Z"/>
</mask>
<path fill-rule="evenodd" clip-rule="evenodd" d="M237 498H228V563V566V572L595 572V563L237 563V498Z" fill="white"/>
<path d="M228 498V497H227V498H228ZM237 498H238V497H237V498ZM228 572H227V573H228L228 572ZM595 572V573H596V572H595ZM595 563H596V562H595V563ZM237 563H236V564H237V563ZM228 499H237V497H228V499ZM229 563V498H227V563H229ZM229 566V563H227V566H229ZM229 572V566H227V572H229ZM595 571L228 571L228 573L595 573V571ZM594 563V572H596V563H594ZM237 564L595 564V562L237 562V564ZM236 498V563H238V498H236Z" fill="#007DED" mask="url(#path-9-inside-5)"/>
<mask id="path-11-inside-6" fill="white">
<path fill-rule="evenodd" clip-rule="evenodd" d="M249 498H240V551V555V560L595 560V551L249 551V498Z"/>
</mask>
<path fill-rule="evenodd" clip-rule="evenodd" d="M249 498H240V551V555V560L595 560V551L249 551V498Z" fill="white"/>
<path d="M240 498V497H239V498H240ZM249 498H250V497H249V498ZM240 560H239V561H240L240 560ZM595 560V561H596V560H595ZM595 551H596V550H595V551ZM249 551H248V552H249V551ZM240 499H249V497H240V499ZM241 551V498H239V551H241ZM241 555V551H239V555H241ZM241 560V555H239V560H241ZM595 559L240 559L240 561L595 561V559ZM594 551V560H596V551H594ZM249 552L595 552V550L249 550V552ZM248 498V551H250V498H248Z" fill="#007DED" mask="url(#path-11-inside-6)"/>
<mask id="path-13-inside-7" fill="white">
<path fill-rule="evenodd" clip-rule="evenodd" d="M261 496H252V539V543V548L595 548V539L261 539V496Z"/>
</mask>
<path fill-rule="evenodd" clip-rule="evenodd" d="M261 496H252V539V543V548L595 548V539L261 539V496Z" fill="white"/>
<path d="M252 496V495H251V496H252ZM261 496H262V495H261V496ZM252 548H251V549H252L252 548ZM595 548V549H596V548H595ZM595 539H596V538H595V539ZM261 539H260V540H261V539ZM252 497H261V495H252V497ZM253 539V496H251V539H253ZM253 543V539H251V543H253ZM253 548V543H251V548H253ZM595 547L252 547L252 549L595 549V547ZM594 539V548H596V539H594ZM261 540L595 540V538L261 538V540ZM260 496V539H262V496H260Z" fill="#007DED" mask="url(#path-13-inside-7)"/>
<mask id="path-15-inside-8" fill="white">
<path fill-rule="evenodd" clip-rule="evenodd" d="M273 498H264V527V531V536L595 536V527L273 527V498Z"/>
</mask>
<path fill-rule="evenodd" clip-rule="evenodd" d="M273 498H264V527V531V536L595 536V527L273 527V498Z" fill="white"/>
<path d="M264 498V497H263V498H264ZM273 498H274V497H273V498ZM264 536H263V537H264L264 536ZM595 536V537H596V536H595ZM595 527H596V526H595V527ZM273 527H272V528H273V527ZM264 499H273V497H264V499ZM265 527V498H263V527H265ZM265 531V527H263V531H265ZM265 536V531H263V536H265ZM595 535L264 535L264 537L595 537V535ZM594 527V536H596V527H594ZM273 528L595 528V526L273 526V528ZM272 498V527H274V498H272Z" fill="#007DED" mask="url(#path-15-inside-8)"/>
<g clip-path="url(#clip0)">
<path d="M694.89 177.83V137.63H641.93V110.5H546.46V137.63H493.5V177.82C493.5 177.82 493.5 177.82 493.51 177.82C496.66 177.82 499.22 180.37 499.22 183.53C499.22 186.68 496.67 189.24 493.51 189.24C493.51 189.24 493.51 189.24 493.5 189.24V206.15C493.5 206.15 493.5 206.15 493.51 206.15C496.66 206.15 499.22 208.7 499.22 211.86C499.22 215.01 496.67 217.57 493.51 217.57C493.51 217.57 493.51 217.57 493.5 217.57V234.48C493.5 234.48 493.5 234.48 493.51 234.48C496.66 234.48 499.22 237.03 499.22 240.19C499.22 243.34 496.67 245.9 493.51 245.9C493.51 245.9 493.51 245.9 493.5 245.9V262.81C493.5 262.81 493.5 262.81 493.51 262.81C496.66 262.81 499.22 265.36 499.22 268.52C499.22 271.67 496.67 274.23 493.51 274.23C493.51 274.23 493.51 274.23 493.5 274.23V291.14C493.5 291.14 493.5 291.14 493.51 291.14C496.66 291.14 499.22 293.69 499.22 296.85C499.22 300 496.67 302.56 493.51 302.56C493.51 302.56 493.51 302.56 493.5 302.56V319.47C493.5 319.47 493.5 319.47 493.51 319.47C496.66 319.47 499.22 322.02 499.22 325.18C499.22 328.34 496.67 330.89 493.51 330.89C493.51 330.89 493.51 330.89 493.5 330.89V347.8C493.5 347.8 493.5 347.8 493.51 347.8C496.66 347.8 499.22 350.35 499.22 353.51C499.22 356.67 496.67 359.22 493.51 359.22C493.51 359.22 493.51 359.22 493.5 359.22V376.13C493.5 376.13 493.5 376.13 493.51 376.13C496.66 376.13 499.22 378.68 499.22 381.84C499.22 385 496.67 387.55 493.51 387.55C493.51 387.55 493.51 387.55 493.5 387.55V404.46C493.5 404.46 493.5 404.46 493.51 404.46C496.66 404.46 499.22 407.01 499.22 410.17C499.22 413.33 496.67 415.88 493.51 415.88C493.51 415.88 493.51 415.88 493.5 415.88V432.79C493.5 432.79 493.5 432.79 493.51 432.79C496.66 432.79 499.22 435.34 499.22 438.5C499.22 441.66 496.67 444.21 493.51 444.21C493.51 444.21 493.51 444.21 493.5 444.21V461.12C493.5 461.12 493.5 461.12 493.51 461.12C496.66 461.12 499.22 463.67 499.22 466.83C499.22 469.99 496.67 472.54 493.51 472.54C493.51 472.54 493.51 472.54 493.5 472.54V489.45C493.5 489.45 493.5 489.45 493.51 489.45C496.66 489.45 499.22 492 499.22 495.16C499.22 498.31 496.67 500.87 493.51 500.87C493.51 500.87 493.51 500.87 493.5 500.87V517.78C493.5 517.78 493.5 517.78 493.51 517.78C496.66 517.78 499.22 520.33 499.22 523.49C499.22 526.64 496.67 529.2 493.51 529.2C493.51 529.2 493.51 529.2 493.5 529.2V546.11C493.5 546.11 493.5 546.11 493.51 546.11C496.66 546.11 499.22 548.66 499.22 551.82C499.22 554.97 496.67 557.53 493.51 557.53C493.51 557.53 493.51 557.53 493.5 557.53V574.44C493.5 574.44 493.5 574.44 493.51 574.44C496.66 574.44 499.22 576.99 499.22 580.15C499.22 583.3 496.67 585.86 493.51 585.86C493.51 585.86 493.51 585.86 493.5 585.86V625.52H694.89V585.85C691.81 585.77 689.34 583.25 689.34 580.15C689.34 577.05 691.81 574.53 694.89 574.45V557.52C691.81 557.44 689.34 554.92 689.34 551.82C689.34 548.72 691.81 546.2 694.89 546.12V529.19C691.81 529.11 689.34 526.59 689.34 523.49C689.34 520.39 691.81 517.87 694.89 517.79V500.86C691.81 500.78 689.34 498.26 689.34 495.16C689.34 492.06 691.81 489.54 694.89 489.46V472.53C691.81 472.45 689.34 469.93 689.34 466.83C689.34 463.73 691.81 461.21 694.89 461.13V444.2C691.81 444.12 689.34 441.6 689.34 438.5C689.34 435.4 691.81 432.88 694.89 432.8V415.87C691.81 415.79 689.34 413.27 689.34 410.17C689.34 407.07 691.81 404.55 694.89 404.47V387.54C691.81 387.46 689.34 384.94 689.34 381.84C689.34 378.74 691.81 376.22 694.89 376.14V359.21C691.81 359.13 689.34 356.61 689.34 353.51C689.34 350.41 691.81 347.89 694.89 347.81V330.88C691.81 330.8 689.34 328.28 689.34 325.18C689.34 322.08 691.81 319.56 694.89 319.48V302.55C691.81 302.47 689.34 299.95 689.34 296.85C689.34 293.75 691.81 291.23 694.89 291.15V274.2C691.81 274.12 689.34 271.6 689.34 268.5C689.34 265.4 691.81 262.88 694.89 262.8V245.87C691.81 245.79 689.34 243.27 689.34 240.17C689.34 237.07 691.81 234.55 694.89 234.47V217.54C691.81 217.46 689.34 214.94 689.34 211.84C689.34 208.74 691.81 206.22 694.89 206.14V189.23C691.81 189.15 689.34 186.63 689.34 183.53C689.34 180.43 691.81 177.91 694.89 177.83Z" fill="white" stroke="#007DED" stroke-miterlimit="10"/>
<path d="M652.33 463.51H536.05V579.79H652.33V463.51Z" fill="white" stroke="#007DED" stroke-miterlimit="10"/>
<path d="M582.97 298.85H526.43V331.72H582.97V298.85Z" fill="white" stroke="#85C0F6" stroke-miterlimit="10"/>
<path d="M649.03 212.96H635.14V243.09H649.03V212.96Z" fill="white" stroke="#007DED" stroke-miterlimit="10"/>
<path d="M545.28 218.3H523.63V252.94H545.28V218.3Z" fill="white" stroke="#007DED" stroke-miterlimit="10"/>
<path d="M614.68 245.63H572.84V274.39H614.68V245.63Z" fill="white" stroke="#007DED" stroke-miterlimit="10"/>
<path d="M572.84 251.7H567.75V268.79H572.84V251.7Z" fill="white" stroke="#007DED" stroke-miterlimit="10"/>
<path d="M619.76 251.47H614.67V268.56H619.76V251.47Z" fill="white" stroke="#007DED" stroke-miterlimit="10"/>
<path d="M593.58 270.75C599.512 270.75 604.32 265.942 604.32 260.01C604.32 254.078 599.512 249.27 593.58 249.27C587.648 249.27 582.84 254.078 582.84 260.01C582.84 265.942 587.648 270.75 593.58 270.75Z" stroke="#007DED" stroke-miterlimit="10"/>
<path d="M652.33 579.79H536.05V625.45H652.33V579.79Z" fill="white" stroke="#007DED" stroke-miterlimit="10"/>
<path d="M509.21 217.56C512.364 217.56 514.92 215.004 514.92 211.85C514.92 208.696 512.364 206.14 509.21 206.14C506.056 206.14 503.5 208.696 503.5 211.85C503.5 215.004 506.056 217.56 509.21 217.56Z" fill="white" stroke="#007DED" stroke-miterlimit="10"/>
<path d="M509.21 245.89C512.364 245.89 514.92 243.334 514.92 240.18C514.92 237.026 512.364 234.47 509.21 234.47C506.056 234.47 503.5 237.026 503.5 240.18C503.5 243.334 506.056 245.89 509.21 245.89Z" fill="white" stroke="#007DED" stroke-miterlimit="10"/>
<path d="M509.21 274.21C512.364 274.21 514.92 271.654 514.92 268.5C514.92 265.346 512.364 262.79 509.21 262.79C506.056 262.79 503.5 265.346 503.5 268.5C503.5 271.654 506.056 274.21 509.21 274.21Z" fill="white" stroke="#007DED" stroke-miterlimit="10"/>
<path d="M509.21 302.54C512.364 302.54 514.92 299.984 514.92 296.83C514.92 293.676 512.364 291.12 509.21 291.12C506.056 291.12 503.5 293.676 503.5 296.83C503.5 299.984 506.056 302.54 509.21 302.54Z" fill="white" stroke="#007DED" stroke-miterlimit="10"/>
<path d="M509.21 330.87C512.364 330.87 514.92 328.314 514.92 325.16C514.92 322.006 512.364 319.45 509.21 319.45C506.056 319.45 503.5 322.006 503.5 325.16C503.5 328.314 506.056 330.87 509.21 330.87Z" fill="white" stroke="#007DED" stroke-miterlimit="10"/>
<path d="M509.21 359.19C512.364 359.19 514.92 356.634 514.92 353.48C514.92 350.326 512.364 347.77 509.21 347.77C506.056 347.77 503.5 350.326 503.5 353.48C503.5 356.634 506.056 359.19 509.21 359.19Z" fill="white" stroke="#007DED" stroke-miterlimit="10"/>
<path d="M509.21 387.52C512.364 387.52 514.92 384.964 514.92 381.81C514.92 378.656 512.364 376.1 509.21 376.1C506.056 376.1 503.5 378.656 503.5 381.81C503.5 384.964 506.056 387.52 509.21 387.52Z" fill="white" stroke="#007DED" stroke-miterlimit="10"/>
<path d="M509.21 415.84C512.364 415.84 514.92 413.284 514.92 410.13C514.92 406.976 512.364 404.42 509.21 404.42C506.056 404.42 503.5 406.976 503.5 410.13C503.5 413.284 506.056 415.84 509.21 415.84Z" fill="white" stroke="#007DED" stroke-miterlimit="10"/>
<path d="M509.21 444.17C512.364 444.17 514.92 441.614 514.92 438.46C514.92 435.306 512.364 432.75 509.21 432.75C506.056 432.75 503.5 435.306 503.5 438.46C503.5 441.614 506.056 444.17 509.21 444.17Z" fill="white" stroke="#007DED" stroke-miterlimit="10"/>
<path d="M509.21 472.49C512.364 472.49 514.92 469.934 514.92 466.78C514.92 463.626 512.364 461.07 509.21 461.07C506.056 461.07 503.5 463.626 503.5 466.78C503.5 469.934 506.056 472.49 509.21 472.49Z" fill="white" stroke="#007DED" stroke-miterlimit="10"/>
<path d="M509.21 500.82C512.364 500.82 514.92 498.264 514.92 495.11C514.92 491.956 512.364 489.4 509.21 489.4C506.056 489.4 503.5 491.956 503.5 495.11C503.5 498.264 506.056 500.82 509.21 500.82Z" fill="white" stroke="#007DED" stroke-miterlimit="10"/>
<path d="M509.21 529.15C512.364 529.15 514.92 526.594 514.92 523.44C514.92 520.286 512.364 517.73 509.21 517.73C506.056 517.73 503.5 520.286 503.5 523.44C503.5 526.594 506.056 529.15 509.21 529.15Z" fill="white" stroke="#007DED" stroke-miterlimit="10"/>
<path d="M509.21 557.47C512.364 557.47 514.92 554.914 514.92 551.76C514.92 548.606 512.364 546.05 509.21 546.05C506.056 546.05 503.5 548.606 503.5 551.76C503.5 554.914 506.056 557.47 509.21 557.47Z" fill="white" stroke="#007DED" stroke-miterlimit="10"/>
<path d="M509.21 585.8C512.364 585.8 514.92 583.244 514.92 580.09C514.92 576.936 512.364 574.38 509.21 574.38C506.056 574.38 503.5 576.936 503.5 580.09C503.5 583.244 506.056 585.8 509.21 585.8Z" fill="white" stroke="#007DED" stroke-miterlimit="10"/>
<path d="M509.21 189.24C512.364 189.24 514.92 186.684 514.92 183.53C514.92 180.376 512.364 177.82 509.21 177.82C506.056 177.82 503.5 180.376 503.5 183.53C503.5 186.684 506.056 189.24 509.21 189.24Z" fill="white" stroke="#007DED" stroke-miterlimit="10"/>
<path d="M679.34 217.56C682.494 217.56 685.05 215.004 685.05 211.85C685.05 208.696 682.494 206.14 679.34 206.14C676.186 206.14 673.63 208.696 673.63 211.85C673.63 215.004 676.186 217.56 679.34 217.56Z" fill="white" stroke="#007DED" stroke-miterlimit="10"/>
<path d="M679.34 245.89C682.494 245.89 685.05 243.334 685.05 240.18C685.05 237.026 682.494 234.47 679.34 234.47C676.186 234.47 673.63 237.026 673.63 240.18C673.63 243.334 676.186 245.89 679.34 245.89Z" fill="white" stroke="#007DED" stroke-miterlimit="10"/>
<path d="M679.34 274.21C682.494 274.21 685.05 271.654 685.05 268.5C685.05 265.346 682.494 262.79 679.34 262.79C676.186 262.79 673.63 265.346 673.63 268.5C673.63 271.654 676.186 274.21 679.34 274.21Z" fill="white" stroke="#007DED" stroke-miterlimit="10"/>
<path d="M679.34 302.54C682.494 302.54 685.05 299.984 685.05 296.83C685.05 293.676 682.494 291.12 679.34 291.12C676.186 291.12 673.63 293.676 673.63 296.83C673.63 299.984 676.186 302.54 679.34 302.54Z" fill="white" stroke="#007DED" stroke-miterlimit="10"/>
<path d="M679.34 330.87C682.494 330.87 685.05 328.314 685.05 325.16C685.05 322.006 682.494 319.45 679.34 319.45C676.186 319.45 673.63 322.006 673.63 325.16C673.63 328.314 676.186 330.87 679.34 330.87Z" fill="white" stroke="#007DED" stroke-miterlimit="10"/>
<path d="M679.34 387.52C682.494 387.52 685.05 384.964 685.05 381.81C685.05 378.656 682.494 376.1 679.34 376.1C676.186 376.1 673.63 378.656 673.63 381.81C673.63 384.964 676.186 387.52 679.34 387.52Z" fill="white" stroke="#007DED" stroke-miterlimit="10"/>
<path d="M679.34 415.84C682.494 415.84 685.05 413.284 685.05 410.13C685.05 406.976 682.494 404.42 679.34 404.42C676.186 404.42 673.63 406.976 673.63 410.13C673.63 413.284 676.186 415.84 679.34 415.84Z" fill="white" stroke="#007DED" stroke-miterlimit="10"/>
<path d="M679.34 472.49C682.494 472.49 685.05 469.934 685.05 466.78C685.05 463.626 682.494 461.07 679.34 461.07C676.186 461.07 673.63 463.626 673.63 466.78C673.63 469.934 676.186 472.49 679.34 472.49Z" fill="white" stroke="#007DED" stroke-miterlimit="10"/>
<path d="M679.34 500.82C682.494 500.82 685.05 498.264 685.05 495.11C685.05 491.956 682.494 489.4 679.34 489.4C676.186 489.4 673.63 491.956 673.63 495.11C673.63 498.264 676.186 500.82 679.34 500.82Z" fill="white" stroke="#007DED" stroke-miterlimit="10"/>
<path d="M679.34 529.15C682.494 529.15 685.05 526.594 685.05 523.44C685.05 520.286 682.494 517.73 679.34 517.73C676.186 517.73 673.63 520.286 673.63 523.44C673.63 526.594 676.186 529.15 679.34 529.15Z" fill="white" stroke="#007DED" stroke-miterlimit="10"/>
<path d="M679.34 557.47C682.494 557.47 685.05 554.914 685.05 551.76C685.05 548.606 682.494 546.05 679.34 546.05C676.186 546.05 673.63 548.606 673.63 551.76C673.63 554.914 676.186 557.47 679.34 557.47Z" fill="white" stroke="#007DED" stroke-miterlimit="10"/>
<path d="M679.34 585.8C682.494 585.8 685.05 583.244 685.05 580.09C685.05 576.936 682.494 574.38 679.34 574.38C676.186 574.38 673.63 576.936 673.63 580.09C673.63 583.244 676.186 585.8 679.34 585.8Z" fill="white" stroke="#007DED" stroke-miterlimit="10"/>
<path d="M679.34 189.24C682.494 189.24 685.05 186.684 685.05 183.53C685.05 180.376 682.494 177.82 679.34 177.82C676.186 177.82 673.63 180.376 673.63 183.53C673.63 186.684 676.186 189.24 679.34 189.24Z" fill="white" stroke="#007DED" stroke-miterlimit="10"/>
<path d="M640.65 305.84V291.86C640.65 289.65 642.44 287.86 644.65 287.86H650.28C652.49 287.86 654.28 289.65 654.28 291.86V305.84C654.28 308.05 652.49 309.84 650.28 309.84H644.65C642.45 309.84 640.65 308.05 640.65 305.84Z" fill="white" stroke="#007DED" stroke-miterlimit="10"/>
<path d="M560.67 225.29V211.31C560.67 209.1 562.46 207.31 564.67 207.31H570.3C572.51 207.31 574.3 209.1 574.3 211.31V225.29C574.3 227.5 572.51 229.29 570.3 229.29H564.67C562.46 229.29 560.67 227.49 560.67 225.29Z" fill="white" stroke="#007DED" stroke-miterlimit="10"/>
<path d="M609.8 208.71H592.81V234.47H609.8V208.71Z" fill="white" stroke="#007DED" stroke-miterlimit="10"/>
<path d="M507.89 161.2C512.805 161.2 516.79 157.215 516.79 152.3C516.79 147.385 512.805 143.4 507.89 143.4C502.975 143.4 498.99 147.385 498.99 152.3C498.99 157.215 502.975 161.2 507.89 161.2Z" fill="white" stroke="#007DED" stroke-miterlimit="10"/>
<path d="M679.89 161.2C684.805 161.2 688.79 157.215 688.79 152.3C688.79 147.385 684.805 143.4 679.89 143.4C674.975 143.4 670.99 147.385 670.99 152.3C670.99 157.215 674.975 161.2 679.89 161.2Z" fill="white" stroke="#007DED" stroke-miterlimit="10"/>
<path d="M645.48 371.87H611.22V412.43H645.48V371.87Z" fill="white" stroke="#007DED" stroke-miterlimit="10"/>
<path d="M547.18 202.26H535.55V208.71H547.18V202.26Z" stroke="#007DED" stroke-miterlimit="10"/>
<path d="M643.85 204.51H640.33V216.44H643.85V204.51Z" fill="#88C2F6" stroke="#007DED" stroke-miterlimit="10"/>
<path d="M643.85 238.12H640.33V250.05H643.85V238.12Z" fill="#88C2F6" stroke="#007DED" stroke-miterlimit="10"/>
<path d="M576.27 225.1H558.68V233.46H576.27V225.1Z" fill="#88C2F6" stroke="#007DED" stroke-miterlimit="10"/>
<path d="M576.27 203.13H558.68V211.49H576.27V203.13Z" fill="#88C2F6" stroke="#007DED" stroke-miterlimit="10"/>
<path d="M656.26 283.68H638.67V292.04H656.26V283.68Z" fill="#88C2F6" stroke="#007DED" stroke-miterlimit="10"/>
<path d="M548.55 283.47H533.09V291.12H548.55V283.47Z" stroke="#007DED" stroke-miterlimit="10"/>
<path d="M547.619 370.792V383.232H553.779V370.792H547.619Z" fill="white" stroke="#007DED" stroke-miterlimit="10"/>
<path d="M559.065 370.788V383.228H565.225V370.788H559.065Z" fill="white" stroke="#007DED" stroke-miterlimit="10"/>
<path d="M560.77 356.66H546.79C544.58 356.66 542.79 354.87 542.79 352.66V347.03C542.79 344.82 544.58 343.03 546.79 343.03H560.77C562.98 343.03 564.77 344.82 564.77 347.03V352.66C564.77 354.87 562.98 356.66 560.77 356.66Z" fill="white" stroke="#007DED" stroke-miterlimit="10"/>
<path d="M538.61 341.056V358.646H546.97V341.056H538.61Z" fill="#88C2F6" stroke="#007DED" stroke-miterlimit="10"/>
<path d="M560.588 341.054V358.644H568.948V341.054H560.588Z" fill="#88C2F6" stroke="#007DED" stroke-miterlimit="10"/>
<path d="M522.351 504.927V520.387H530.001V504.927H522.351Z" fill="white" stroke="#007DED" stroke-miterlimit="10"/>
<path d="M619.4 227.83H607.81V231.79H619.4V227.83Z" fill="#88C2F6" stroke="#007DED" stroke-miterlimit="10"/>
<path d="M619.4 210.98H607.81V214.94H619.4V210.98Z" fill="#88C2F6" stroke="#007DED" stroke-miterlimit="10"/>
<path d="M594.34 210.98H582.75V214.94H594.34V210.98Z" fill="#88C2F6" stroke="#007DED" stroke-miterlimit="10"/>
<path d="M594.34 227.83H582.75V231.79H594.34V227.83Z" fill="#88C2F6" stroke="#007DED" stroke-miterlimit="10"/>
<path d="M508.06 619.5C512.975 619.5 516.96 615.515 516.96 610.6C516.96 605.685 512.975 601.7 508.06 601.7C503.145 601.7 499.16 605.685 499.16 610.6C499.16 615.515 503.145 619.5 508.06 619.5Z" fill="white" stroke="#007DED" stroke-miterlimit="10"/>
<path d="M679.45 619.8C684.365 619.8 688.35 615.815 688.35 610.9C688.35 605.985 684.365 602 679.45 602C674.535 602 670.55 605.985 670.55 610.9C670.55 615.815 674.535 619.8 679.45 619.8Z" fill="white" stroke="#007DED" stroke-miterlimit="10"/>
<path d="M529.63 201.22C527.62 201.22 525.98 199.58 525.98 197.57V189.03C525.98 187.02 527.62 185.38 529.63 185.38C531.64 185.38 533.28 187.02 533.28 189.03V197.57C533.28 199.57 531.64 201.22 529.63 201.22Z" stroke="#007DED" stroke-miterlimit="10"/>
<path d="M533.28 190.85H525.98V196.2H533.28V190.85Z" fill="#88C2F6" stroke="#007DED" stroke-miterlimit="10"/>
<path d="M552.39 224.66C550.38 224.66 548.74 223.02 548.74 221.01V212.47C548.74 210.46 550.38 208.82 552.39 208.82C554.4 208.82 556.04 210.46 556.04 212.47V221.01C556.04 223.02 554.4 224.66 552.39 224.66Z" stroke="#007DED" stroke-miterlimit="10"/>
<path d="M556.04 214.29H548.74V219.64H556.04V214.29Z" fill="#88C2F6" stroke="#007DED" stroke-miterlimit="10"/>
<path d="M646.7 273.15C644.69 273.15 643.05 271.51 643.05 269.5V260.96C643.05 258.95 644.69 257.31 646.7 257.31C648.71 257.31 650.35 258.95 650.35 260.96V269.5C650.35 271.51 648.7 273.15 646.7 273.15Z" fill="white" stroke="#007DED" stroke-miterlimit="10"/>
<path d="M650.34 262.78H643.04V268.13H650.34V262.78Z" fill="#88C2F6" stroke="#007DED" stroke-miterlimit="10"/>
<path d="M633.63 273.15C631.62 273.15 629.98 271.51 629.98 269.5V260.96C629.98 258.95 631.62 257.31 633.63 257.31C635.64 257.31 637.28 258.95 637.28 260.96V269.5C637.28 271.51 635.64 273.15 633.63 273.15Z" fill="white" stroke="#007DED" stroke-miterlimit="10"/>
<path d="M637.28 262.78H629.98V268.13H637.28V262.78Z" fill="#88C2F6" stroke="#007DED" stroke-miterlimit="10"/>
<path d="M661.37 207.31C659.36 207.31 657.72 205.67 657.72 203.66V195.12C657.72 193.11 659.36 191.47 661.37 191.47C663.38 191.47 665.02 193.11 665.02 195.12V203.66C665.02 205.66 663.38 207.31 661.37 207.31Z" stroke="#007DED" stroke-miterlimit="10"/>
<path d="M665.02 196.94H657.72V202.29H665.02V196.94Z" fill="#88C2F6" stroke="#007DED" stroke-miterlimit="10"/>
<path d="M644.71 350.95C642.7 350.95 641.06 349.31 641.06 347.3V338.76C641.06 336.75 642.7 335.11 644.71 335.11C646.72 335.11 648.36 336.75 648.36 338.76V347.3C648.36 349.31 646.72 350.95 644.71 350.95Z" fill="white" stroke="#007DED" stroke-miterlimit="10"/>
<path d="M648.35 340.58H641.05V345.93H648.35V340.58Z" fill="#88C2F6" stroke="#007DED" stroke-miterlimit="10"/>
<path d="M661.11 333.08C659.1 333.08 657.46 331.44 657.46 329.43V320.89C657.46 318.88 659.1 317.24 661.11 317.24C663.12 317.24 664.76 318.88 664.76 320.89V329.43C664.76 331.44 663.12 333.08 661.11 333.08Z" fill="white" stroke="#007DED" stroke-miterlimit="10"/>
<path d="M664.76 322.71H657.46V328.06H664.76V322.71Z" fill="#88C2F6" stroke="#007DED" stroke-miterlimit="10"/>
<path d="M652.53 458.84C650.52 458.84 648.88 457.2 648.88 455.19V446.65C648.88 444.64 650.52 443 652.53 443C654.54 443 656.18 444.64 656.18 446.65V455.19C656.18 457.2 654.54 458.84 652.53 458.84Z" fill="white" stroke="#007DED" stroke-miterlimit="10"/>
<path d="M656.17 448.47H648.87V453.82H656.17V448.47Z" fill="#88C2F6" stroke="#007DED" stroke-miterlimit="10"/>
<path d="M615.66 459.07C613.65 459.07 612.01 457.43 612.01 455.42V446.88C612.01 444.87 613.65 443.23 615.66 443.23C617.67 443.23 619.31 444.87 619.31 446.88V455.42C619.31 457.43 617.67 459.07 615.66 459.07Z" fill="white" stroke="#007DED" stroke-miterlimit="10"/>
<path d="M619.3 448.7H612V454.05H619.3V448.7Z" fill="#88C2F6" stroke="#007DED" stroke-miterlimit="10"/>
<path d="M630.03 418.78C630.03 416.77 631.67 415.13 633.68 415.13H642.22C644.23 415.13 645.87 416.77 645.87 418.78C645.87 420.79 644.23 422.43 642.22 422.43H633.68C631.68 422.43 630.03 420.79 630.03 418.78Z" fill="white" stroke="#007DED" stroke-miterlimit="10"/>
<path d="M640.401 422.434V415.134H635.051V422.434H640.401Z" fill="#88C2F6" stroke="#007DED" stroke-miterlimit="10"/>
<path d="M526.11 426.09C526.11 424.08 527.75 422.44 529.76 422.44H538.3C540.31 422.44 541.95 424.08 541.95 426.09C541.95 428.1 540.31 429.74 538.3 429.74H529.76C527.75 429.74 526.11 428.1 526.11 426.09Z" fill="white" stroke="#007DED" stroke-miterlimit="10"/>
<path d="M536.481 429.733V422.433H531.131V429.733H536.481Z" fill="#88C2F6" stroke="#007DED" stroke-miterlimit="10"/>
<path d="M525.88 382.78C525.88 380.77 527.52 379.13 529.53 379.13H538.07C540.08 379.13 541.72 380.77 541.72 382.78C541.72 384.79 540.08 386.43 538.07 386.43H529.53C527.52 386.43 525.88 384.79 525.88 382.78Z" fill="white" stroke="#007DED" stroke-miterlimit="10"/>
<path d="M536.249 386.427V379.127H530.899V386.427H536.249Z" fill="#88C2F6" stroke="#007DED" stroke-miterlimit="10"/>
<path d="M526.11 371.24C526.11 369.23 527.75 367.59 529.76 367.59H538.3C540.31 367.59 541.95 369.23 541.95 371.24C541.95 373.25 540.31 374.89 538.3 374.89H529.76C527.75 374.89 526.11 373.25 526.11 371.24Z" fill="white" stroke="#007DED" stroke-miterlimit="10"/>
<path d="M536.474 374.885V367.585H531.124V374.885H536.474Z" fill="#88C2F6" stroke="#007DED" stroke-miterlimit="10"/>
<path d="M662.59 550.72C660.58 550.72 658.94 549.08 658.94 547.07V538.53C658.94 536.52 660.58 534.88 662.59 534.88C664.6 534.88 666.24 536.52 666.24 538.53V547.07C666.24 549.07 664.6 550.72 662.59 550.72Z" fill="white" stroke="#007DED" stroke-miterlimit="10"/>
<path d="M666.23 540.35H658.93V545.7H666.23V540.35Z" fill="#88C2F6" stroke="#007DED" stroke-miterlimit="10"/>
<path d="M526.11 593.72C524.1 593.72 522.46 592.08 522.46 590.07V581.53C522.46 579.52 524.1 577.88 526.11 577.88C528.12 577.88 529.76 579.52 529.76 581.53V590.07C529.76 592.07 528.12 593.72 526.11 593.72Z" fill="white" stroke="#007DED" stroke-miterlimit="10"/>
<path d="M529.76 583.35H522.46V588.7H529.76V583.35Z" fill="#88C2F6" stroke="#007DED" stroke-miterlimit="10"/>
<path d="M526.11 617.3C524.1 617.3 522.46 615.66 522.46 613.65V605.11C522.46 603.1 524.1 601.46 526.11 601.46C528.12 601.46 529.76 603.1 529.76 605.11V613.65C529.76 615.66 528.12 617.3 526.11 617.3Z" stroke="#007DED" stroke-miterlimit="10"/>
<path d="M529.76 606.93H522.46V612.28H529.76V606.93Z" fill="#88C2F6" stroke="#007DED" stroke-miterlimit="10"/>
<path d="M588.13 344.85C588.13 342.84 589.77 341.2 591.78 341.2H600.32C602.33 341.2 603.97 342.84 603.97 344.85C603.97 346.86 602.33 348.5 600.32 348.5H591.78C589.77 348.5 588.13 346.86 588.13 344.85Z" stroke="#007DED" stroke-miterlimit="10"/>
<path d="M598.5 348.496V341.196H593.15V348.496H598.5Z" fill="#88C2F6" stroke="#007DED" stroke-miterlimit="10"/>
<path d="M537.15 295.13H533.43V298.85H537.15V295.13Z" fill="#88C2F6" stroke="#007DED" stroke-miterlimit="10"/>
<path d="M544.87 295.13H541.15V298.85H544.87V295.13Z" fill="#88C2F6" stroke="#007DED" stroke-miterlimit="10"/>
<path d="M552.58 295.13H548.86V298.85H552.58V295.13Z" fill="#88C2F6" stroke="#007DED" stroke-miterlimit="10"/>
<path d="M560.3 295.13H556.58V298.85H560.3V295.13Z" fill="#88C2F6" stroke="#007DED" stroke-miterlimit="10"/>
<path d="M537.15 331.72H533.43V335.44H537.15V331.72Z" fill="#88C2F6" stroke="#007DED" stroke-miterlimit="10"/>
<path d="M544.87 331.72H541.15V335.44H544.87V331.72Z" fill="#88C2F6" stroke="#007DED" stroke-miterlimit="10"/>
<path d="M552.58 331.72H548.86V335.44H552.58V331.72Z" fill="#88C2F6" stroke="#007DED" stroke-miterlimit="10"/>
<path d="M560.3 331.72H556.58V335.44H560.3V331.72Z" fill="#88C2F6" stroke="#007DED" stroke-miterlimit="10"/>
<path d="M568.02 295.13H564.3V298.85H568.02V295.13Z" fill="#88C2F6" stroke="#007DED" stroke-miterlimit="10"/>
<path d="M575.74 295.13H572.02V298.85H575.74V295.13Z" fill="#88C2F6" stroke="#007DED" stroke-miterlimit="10"/>
<path d="M568.02 331.72H564.3V335.44H568.02V331.72Z" fill="#88C2F6" stroke="#007DED" stroke-miterlimit="10"/>
<path d="M575.74 331.72H572.02V335.44H575.74V331.72Z" fill="#88C2F6" stroke="#007DED" stroke-miterlimit="10"/>
<path d="M586.693 305.57V301.85H582.973V305.57H586.693Z" fill="#88C2F6" stroke="#007DED" stroke-miterlimit="10"/>
<path d="M586.691 313.287V309.567H582.971V313.287H586.691Z" fill="#88C2F6" stroke="#007DED" stroke-miterlimit="10"/>
<path d="M586.698 321.004V317.284H582.978V321.004H586.698Z" fill="#88C2F6" stroke="#007DED" stroke-miterlimit="10"/>
<path d="M586.696 328.722V325.002H582.976V328.722H586.696Z" fill="#88C2F6" stroke="#007DED" stroke-miterlimit="10"/>
<path d="M594.32 602.01H629.24L638.42 592.82V588.97H549.71V592.82L558.89 602.01H594.32Z" fill="white" stroke="#007DED" stroke-miterlimit="10"/>
<path d="M582.74 619.81L572.55 609.62H611.68L601.52 619.79L582.74 619.81Z" fill="white" stroke="#007DED" stroke-miterlimit="10"/>
<path d="M641.94 110.5H546.46V183.53H641.94V110.5Z" fill="white" stroke="#007DED" stroke-miterlimit="10"/>
<path d="M577.37 193H574.63C573.73 193 573 192.27 573 191.37V183.53H579V191.37C579 192.27 578.27 193 577.37 193Z" fill="#88C2F6" stroke="#007DED" stroke-miterlimit="10"/>
<path d="M586.27 193H583.53C582.63 193 581.9 192.27 581.9 191.37V183.53H587.9V191.37C587.9 192.27 587.17 193 586.27 193Z" fill="#88C2F6" stroke="#007DED" stroke-miterlimit="10"/>
<path d="M595.17 193H592.43C591.53 193 590.8 192.27 590.8 191.37V183.53H596.8V191.37C596.8 192.27 596.07 193 595.17 193Z" fill="#88C2F6" stroke="#007DED" stroke-miterlimit="10"/>
<path d="M604.08 193H601.34C600.44 193 599.71 192.27 599.71 191.37V183.53H605.71V191.37C605.71 192.27 604.97 193 604.08 193Z" fill="#88C2F6" stroke="#007DED" stroke-miterlimit="10"/>
<path d="M612.98 193H610.24C609.34 193 608.61 192.27 608.61 191.37V183.53H614.61V191.37C614.61 192.27 613.87 193 612.98 193Z" fill="#88C2F6" stroke="#007DED" stroke-miterlimit="10"/>
<path d="M533.74 147.61H523.57V172.98H533.74V147.61Z" fill="white" stroke="#007DED" stroke-miterlimit="10"/>
<path d="M664.1 147.01H653.93V172.38H664.1V147.01Z" fill="white" stroke="#007DED" stroke-miterlimit="10"/>
<path d="M528.65 168.22C532.936 168.22 536.41 164.746 536.41 160.46C536.41 156.174 532.936 152.7 528.65 152.7C524.364 152.7 520.89 156.174 520.89 160.46C520.89 164.746 524.364 168.22 528.65 168.22Z" fill="#88C2F6" stroke="#007DED" stroke-miterlimit="10"/>
<path d="M659.02 167.62C663.306 167.62 666.78 164.146 666.78 159.86C666.78 155.574 663.306 152.1 659.02 152.1C654.734 152.1 651.26 155.574 651.26 159.86C651.26 164.146 654.734 167.62 659.02 167.62Z" fill="#88C2F6" stroke="#007DED" stroke-miterlimit="10"/>
<path d="M603 356.66H580.99V407.5H603V356.66Z" fill="white" stroke="#007DED" stroke-miterlimit="10"/>
<path d="M605.5 415.84H571.51V456.2H605.5V415.84Z" fill="white" stroke="#007DED" stroke-miterlimit="10"/>
<path d="M633.14 292.54H603.76V321.92H633.14V292.54Z" fill="white" stroke="#007DED" stroke-miterlimit="10"/>
<path d="M588.51 448.83C591.465 448.83 593.86 446.435 593.86 443.48C593.86 440.525 591.465 438.13 588.51 438.13C585.555 438.13 583.16 440.525 583.16 443.48C583.16 446.435 585.555 448.83 588.51 448.83Z" fill="white" stroke="#007DED" stroke-miterlimit="10"/>
<path d="M591.85 373.7C595.081 373.7 597.7 371.081 597.7 367.85C597.7 364.619 595.081 362 591.85 362C588.619 362 586 364.619 586 367.85C586 371.081 588.619 373.7 591.85 373.7Z" fill="white" stroke="#007DED" stroke-miterlimit="10"/>
<path d="M581 390H603V390H581V390Z" stroke="#007DED" stroke-width="2" stroke-miterlimit="10"/>
<path d="M679.34 359.19C682.494 359.19 685.05 356.634 685.05 353.48C685.05 350.326 682.494 347.77 679.34 347.77C676.186 347.77 673.63 350.326 673.63 353.48C673.63 356.634 676.186 359.19 679.34 359.19Z" fill="white" stroke="#007DED" stroke-miterlimit="10"/>
<path d="M656.26 305.65H638.67V314.01H656.26V305.65Z" fill="#88C2F6" stroke="#007DED" stroke-miterlimit="10"/>
<path d="M660.21 372.72C658.2 372.72 656.56 371.08 656.56 369.07V360.53C656.56 358.52 658.2 356.88 660.21 356.88C662.22 356.88 663.86 358.52 663.86 360.53V369.07C663.86 371.08 662.22 372.72 660.21 372.72Z" fill="white" stroke="#007DED" stroke-miterlimit="10"/>
<path d="M663.86 362.35H656.56V367.7H663.86V362.35Z" fill="#88C2F6" stroke="#007DED" stroke-miterlimit="10"/>
<path d="M659.92 397.66C657.91 397.66 656.27 396.02 656.27 394.01V385.47C656.27 383.46 657.91 381.82 659.92 381.82C661.93 381.82 663.57 383.46 663.57 385.47V394C663.57 396.01 661.93 397.66 659.92 397.66Z" fill="white" stroke="#007DED" stroke-miterlimit="10"/>
<path d="M663.57 387.29H656.27V392.64H663.57V387.29Z" fill="#88C2F6" stroke="#007DED" stroke-miterlimit="10"/>
<path d="M679.34 444.17C682.494 444.17 685.05 441.614 685.05 438.46C685.05 435.306 682.494 432.75 679.34 432.75C676.186 432.75 673.63 435.306 673.63 438.46C673.63 441.614 676.186 444.17 679.34 444.17Z" fill="white" stroke="#007DED" stroke-miterlimit="10"/>
</g>
<g clip-path="url(#clip1)">
<path d="M309.592 228.409H145.408V492.012H309.592V228.409Z" fill="white" stroke="#007DED" stroke-miterlimit="10"/>
<path d="M180.565 295.642H169.347C164.481 295.642 160.505 291.661 160.505 286.79C160.505 281.919 164.481 277.939 169.347 277.939H180.565C185.432 277.939 189.408 281.919 189.408 286.79C189.408 291.661 185.432 295.642 180.565 295.642Z" fill="white" stroke="#007DED" stroke-miterlimit="10"/>
<path d="M285.743 296.108H274.524C269.658 296.108 265.682 292.127 265.682 287.256C265.682 282.385 269.658 278.404 274.524 278.404H285.743C290.609 278.404 294.585 282.385 294.585 287.256C294.577 292.127 290.601 296.108 285.743 296.108Z" fill="white" stroke="#007DED" stroke-miterlimit="10"/>
<path d="M302.317 378.241H152.765V453.712H302.317V378.241Z" fill="white" stroke="#007DED" stroke-miterlimit="10"/>
<path d="M227.545 332.846C252.954 332.846 273.553 312.226 273.553 286.79C273.553 261.354 252.954 240.734 227.545 240.734C202.135 240.734 181.537 261.354 181.537 286.79C181.537 312.226 202.135 332.846 227.545 332.846Z" fill="#88C2F6" stroke="#007DED" stroke-miterlimit="10"/>
<path d="M227.496 328.76C250.394 328.76 268.956 310.178 268.956 287.256C268.956 264.334 250.394 245.752 227.496 245.752C204.598 245.752 186.036 264.334 186.036 287.256C186.036 310.178 204.598 328.76 227.496 328.76Z" fill="white" stroke="#007DED" stroke-miterlimit="10"/>
<path d="M227.496 302.205C235.743 302.205 242.429 295.512 242.429 287.256C242.429 279 235.743 272.307 227.496 272.307C219.249 272.307 212.563 279 212.563 287.256C212.563 295.512 219.249 302.205 227.496 302.205Z" fill="white" stroke="#007DED" stroke-width="3" stroke-miterlimit="10"/>
<path d="M157.28 248.008C161.293 248.008 164.546 244.751 164.546 240.734C164.546 236.716 161.293 233.46 157.28 233.46C153.266 233.46 150.013 236.716 150.013 240.734C150.013 244.751 153.266 248.008 157.28 248.008Z" fill="white" stroke="#007DED" stroke-miterlimit="10"/>
<path d="M297.712 248.008C301.725 248.008 304.979 244.751 304.979 240.734C304.979 236.716 301.725 233.46 297.712 233.46C293.699 233.46 290.446 236.716 290.446 240.734C290.446 244.751 293.699 248.008 297.712 248.008Z" fill="white" stroke="#007DED" stroke-miterlimit="10"/>
<path d="M158.072 454.154V459.466H152.765V454.154" fill="white"/>
<path d="M158.072 454.154V459.466H152.765V454.154" stroke="#007DED" stroke-miterlimit="10"/>
<path d="M169.167 454.154V459.466H163.86V454.154" fill="white"/>
<path d="M169.167 454.154V459.466H163.86V454.154" stroke="#007DED" stroke-miterlimit="10"/>
<path d="M180.263 454.154V459.466H174.956V454.154" fill="white"/>
<path d="M180.263 454.154V459.466H174.956V454.154" stroke="#007DED" stroke-miterlimit="10"/>
<path d="M191.359 454.154V459.466H186.052V454.154" fill="white"/>
<path d="M191.359 454.154V459.466H186.052V454.154" stroke="#007DED" stroke-miterlimit="10"/>
<path d="M202.455 454.154V459.466H197.148V454.154" fill="white"/>
<path d="M202.455 454.154V459.466H197.148V454.154" stroke="#007DED" stroke-miterlimit="10"/>
<path d="M213.551 454.154V459.466H208.244V454.154" fill="white"/>
<path d="M213.551 454.154V459.466H208.244V454.154" stroke="#007DED" stroke-miterlimit="10"/>
<path d="M224.646 454.154V459.466H219.339V454.154" fill="white"/>
<path d="M224.646 454.154V459.466H219.339V454.154" stroke="#007DED" stroke-miterlimit="10"/>
<path d="M235.742 454.154V459.466H230.435V454.154" fill="white"/>
<path d="M235.742 454.154V459.466H230.435V454.154" stroke="#007DED" stroke-miterlimit="10"/>
<path d="M246.838 454.154V459.466H241.531V454.154" fill="white"/>
<path d="M246.838 454.154V459.466H241.531V454.154" stroke="#007DED" stroke-miterlimit="10"/>
<path d="M257.934 454.154V459.466H252.627V454.154" fill="white"/>
<path d="M257.934 454.154V459.466H252.627V454.154" stroke="#007DED" stroke-miterlimit="10"/>
<path d="M269.03 454.154V459.466H263.723V454.154" fill="white"/>
<path d="M269.03 454.154V459.466H263.723V454.154" stroke="#007DED" stroke-miterlimit="10"/>
<path d="M280.125 454.154V459.466H274.818V454.154" fill="white"/>
<path d="M280.125 454.154V459.466H274.818V454.154" stroke="#007DED" stroke-miterlimit="10"/>
<path d="M291.221 454.154V459.466H285.914V454.154" fill="white"/>
<path d="M291.221 454.154V459.466H285.914V454.154" stroke="#007DED" stroke-miterlimit="10"/>
<path d="M302.317 454.154V459.466H297.01V454.154" fill="white"/>
<path d="M302.317 454.154V459.466H297.01V454.154" stroke="#007DED" stroke-miterlimit="10"/>
<path d="M297.01 377.791V372.47H302.317V377.791" fill="white"/>
<path d="M297.01 377.791V372.47H302.317V377.791" stroke="#007DED" stroke-miterlimit="10"/>
<path d="M285.914 377.791V372.47H291.221V377.791" fill="white"/>
<path d="M285.914 377.791V372.47H291.221V377.791" stroke="#007DED" stroke-miterlimit="10"/>
<path d="M274.818 377.791V372.47H280.125V377.791" fill="white"/>
<path d="M274.818 377.791V372.47H280.125V377.791" stroke="#007DED" stroke-miterlimit="10"/>
<path d="M263.723 377.791V372.47H269.03V377.791" fill="white"/>
<path d="M263.723 377.791V372.47H269.03V377.791" stroke="#007DED" stroke-miterlimit="10"/>
<path d="M252.627 377.791V372.47H257.934V377.791" fill="white"/>
<path d="M252.627 377.791V372.47H257.934V377.791" stroke="#007DED" stroke-miterlimit="10"/>
<path d="M241.531 377.791V372.47H246.838V377.791" fill="white"/>
<path d="M241.531 377.791V372.47H246.838V377.791" stroke="#007DED" stroke-miterlimit="10"/>
<path d="M230.435 377.791V372.47H235.742V377.791" fill="white"/>
<path d="M230.435 377.791V372.47H235.742V377.791" stroke="#007DED" stroke-miterlimit="10"/>
<path d="M219.339 377.791V372.47H224.646V377.791" fill="white"/>
<path d="M219.339 377.791V372.47H224.646V377.791" stroke="#007DED" stroke-miterlimit="10"/>
<path d="M208.244 377.791V372.47H213.551V377.791" fill="white"/>
<path d="M208.244 377.791V372.47H213.551V377.791" stroke="#007DED" stroke-miterlimit="10"/>
<path d="M197.148 377.791V372.47H202.455V377.791" fill="white"/>
<path d="M197.148 377.791V372.47H202.455V377.791" stroke="#007DED" stroke-miterlimit="10"/>
<path d="M186.052 377.791V372.47H191.359V377.791" fill="white"/>
<path d="M186.052 377.791V372.47H191.359V377.791" stroke="#007DED" stroke-miterlimit="10"/>
<path d="M174.956 377.791V372.47H180.263V377.791" fill="white"/>
<path d="M174.956 377.791V372.47H180.263V377.791" stroke="#007DED" stroke-miterlimit="10"/>
<path d="M163.86 377.791V372.47H169.167V377.791" fill="white"/>
<path d="M163.86 377.791V372.47H169.167V377.791" stroke="#007DED" stroke-miterlimit="10"/>
<path d="M152.765 377.791V372.47H158.072V377.791" fill="white"/>
<path d="M152.765 377.791V372.47H158.072V377.791" stroke="#007DED" stroke-miterlimit="10"/>
<path d="M216.376 276.852L224.646 245.752" stroke="#007DED" stroke-width="2" stroke-miterlimit="10"/>
<path d="M233.089 273.402L261.543 263.57" stroke="#007DED" stroke-width="2" stroke-miterlimit="10"/>
<path d="M241.531 282.14L265.674 302.761" stroke="#007DED" stroke-width="2" stroke-miterlimit="10"/>
<path d="M238.33 297.538L235.742 327.942" stroke="#007DED" stroke-width="2" stroke-miterlimit="10"/>
<path d="M221.993 301.151L191.359 307.607" stroke="#007DED" stroke-width="2" stroke-miterlimit="10"/>
<path d="M213.494 292.454L188.706 273.402" stroke="#007DED" stroke-width="2" stroke-miterlimit="10"/>
<path d="M167.036 288.809C168.15 288.809 169.053 287.905 169.053 286.79C169.053 285.675 168.15 284.771 167.036 284.771C165.923 284.771 165.02 285.675 165.02 286.79C165.02 287.905 165.923 288.809 167.036 288.809Z" fill="#88C2F6" stroke="#007DED" stroke-miterlimit="10"/>
<path d="M288.045 289.275C289.159 289.275 290.062 288.371 290.062 287.256C290.062 286.141 289.159 285.237 288.045 285.237C286.931 285.237 286.028 286.141 286.028 287.256C286.028 288.371 286.931 289.275 288.045 289.275Z" fill="#88C2F6" stroke="#007DED" stroke-miterlimit="10"/>
<path d="M157 355C159.209 355 161 353.209 161 351C161 348.791 159.209 347 157 347C154.791 347 153 348.791 153 351C153 353.209 154.791 355 157 355Z" stroke="#007DED" stroke-miterlimit="10"/>
<path d="M157 343C159.209 343 161 341.209 161 339C161 336.791 159.209 335 157 335C154.791 335 153 336.791 153 339C153 341.209 154.791 343 157 343Z" stroke="#007DED" stroke-miterlimit="10"/>
<path d="M190.2 501.591H182.525C181.463 501.591 180.59 500.717 180.59 499.654V493.941C180.59 492.879 181.463 492.004 182.525 492.004H190.2C191.261 492.004 192.135 492.879 192.135 493.941V499.654C192.135 500.725 191.261 501.591 190.2 501.591Z" fill="#88C2F6" stroke="#007DED" stroke-miterlimit="10"/>
<path d="M201.908 501.591H194.233C193.172 501.591 192.298 500.717 192.298 499.654V493.941C192.298 492.879 193.172 492.004 194.233 492.004H201.908C202.969 492.004 203.843 492.879 203.843 493.941V499.654C203.843 500.725 202.969 501.591 201.908 501.591Z" fill="#88C2F6" stroke="#007DED" stroke-miterlimit="10"/>
<path d="M213.534 501.591H205.859C204.798 501.591 203.924 500.717 203.924 499.654V493.941C203.924 492.879 204.798 492.004 205.859 492.004H213.534C214.596 492.004 215.469 492.879 215.469 493.941V499.654C215.469 500.725 214.604 501.591 213.534 501.591Z" fill="#88C2F6" stroke="#007DED" stroke-miterlimit="10"/>
<path d="M225.251 501.591H217.576C216.514 501.591 215.641 500.717 215.641 499.654V493.941C215.641 492.879 216.514 492.004 217.576 492.004H225.251C226.312 492.004 227.186 492.879 227.186 493.941V499.654C227.186 500.725 226.312 501.591 225.251 501.591Z" fill="#88C2F6" stroke="#007DED" stroke-miterlimit="10"/>
<path d="M236.795 501.591H229.121C228.059 501.591 227.186 500.717 227.186 499.654V493.941C227.186 492.879 228.059 492.004 229.121 492.004H236.795C237.857 492.004 238.731 492.879 238.731 493.941V499.654C238.731 500.725 237.857 501.591 236.795 501.591Z" fill="#88C2F6" stroke="#007DED" stroke-miterlimit="10"/>
<path d="M248.504 501.591H240.829C239.767 501.591 238.894 500.717 238.894 499.654V493.941C238.894 492.879 239.767 492.004 240.829 492.004H248.504C249.565 492.004 250.439 492.879 250.439 493.941V499.654C250.439 500.725 249.565 501.591 248.504 501.591Z" fill="#88C2F6" stroke="#007DED" stroke-miterlimit="10"/>
<path d="M260.13 501.591H252.455C251.394 501.591 250.52 500.717 250.52 499.654V493.941C250.52 492.879 251.394 492.004 252.455 492.004H260.13C261.191 492.004 262.065 492.879 262.065 493.941V499.654C262.065 500.725 261.2 501.591 260.13 501.591Z" fill="#88C2F6" stroke="#007DED" stroke-miterlimit="10"/>
<path d="M271.846 501.591H264.172C263.11 501.591 262.237 500.717 262.237 499.654V493.941C262.237 492.879 263.11 492.004 264.172 492.004H271.846C272.908 492.004 273.781 492.879 273.781 493.941V499.654C273.781 500.725 272.908 501.591 271.846 501.591Z" fill="#88C2F6" stroke="#007DED" stroke-miterlimit="10"/>
<path d="M286 362.5C286 360.573 287.657 359 289.687 359H298.313C300.343 359 302 360.573 302 362.5C302 364.427 300.343 366 298.313 366H289.687C287.657 366 286 364.427 286 362.5Z" fill="white" stroke="#007DED" stroke-miterlimit="10"/>
<path d="M297 366V359H291V366H297Z" fill="#88C2F6" stroke="#007DED" stroke-miterlimit="10"/>
<path d="M153 362.5C153 360.573 154.657 359 156.687 359H165.313C167.343 359 169 360.573 169 362.5C169 364.427 167.343 366 165.313 366H156.687C154.657 366 153 364.427 153 362.5Z" fill="white" stroke="#007DED" stroke-miterlimit="10"/>
<path d="M164 366V359H158V366H164Z" fill="#88C2F6" stroke="#007DED" stroke-miterlimit="10"/>
<path d="M286 351.5C286 349.573 287.657 348 289.687 348H298.313C300.343 348 302 349.573 302 351.5C302 353.427 300.343 355 298.313 355H289.687C287.657 355 286 353.427 286 351.5Z" fill="white" stroke="#007DED" stroke-miterlimit="10"/>
<path d="M297 355V348H291V355H297Z" fill="#88C2F6" stroke="#007DED" stroke-miterlimit="10"/>
<path d="M286 340.5C286 338.573 287.657 337 289.687 337H298.313C300.343 337 302 338.573 302 340.5C302 342.427 300.343 344 298.313 344H289.687C287.657 344 286 342.427 286 340.5Z" fill="white" stroke="#007DED" stroke-miterlimit="10"/>
<path d="M297 344V337H291V344H297Z" fill="#88C2F6" stroke="#007DED" stroke-miterlimit="10"/>
<path d="M286 329.5C286 327.573 287.657 326 289.687 326H298.313C300.343 326 302 327.573 302 329.5C302 331.427 300.343 333 298.313 333H289.687C287.657 333 286 331.427 286 329.5Z" fill="white" stroke="#007DED" stroke-miterlimit="10"/>
<path d="M297 333V326H291V333H297Z" fill="#88C2F6" stroke="#007DED" stroke-miterlimit="10"/>
</g>
<path d="M633 309.527H751L936 124.527" stroke="#B8DAFA"/>
<circle cx="973.5" cy="27.5" r="26.5" fill="white" stroke="#B8DAFA" stroke-width="2"/>
<path d="M973.498 46C973.361 46 973.221 45.9956 973.081 45.9867C969.746 45.7896 967.076 43.1457 967.002 39.9703C966.957 38.0083 967.865 36.1881 969.496 34.9768C970.08 34.5428 970.427 33.8475 970.427 33.1168V11.9163C970.427 10.3087 971.807 9 973.501 9C975.195 9 976.574 10.3087 976.574 11.9163V33.119C976.574 33.8564 976.922 34.5406 977.526 34.9946C979.099 36.1726 980 37.9375 980 39.833C980 41.4805 979.323 43.0283 978.096 44.1931C976.866 45.3578 975.235 46 973.498 46Z" fill="white"/>
<path d="M973.5 8.67023C974.924 8.67023 976.084 9.83867 976.084 11.2774V32.6691C976.084 33.5158 976.461 34.3022 977.114 34.825C978.525 35.951 979.336 37.6333 979.336 39.4451C979.336 42.6913 976.718 45.332 973.5 45.332C973.376 45.332 973.247 45.3275 973.123 45.3208C970.127 45.1287 967.73 42.6064 967.666 39.5747C967.626 37.7025 968.441 35.9644 969.905 34.8071C970.539 34.3067 970.915 33.5068 970.915 32.6668V11.2774C970.915 9.83867 972.076 8.67023 973.5 8.67023ZM973.5 8C971.712 8 970.251 9.47451 970.251 11.2774V32.6668C970.251 33.2924 969.983 33.8956 969.495 34.2799C967.941 35.5064 966.955 37.4322 967.002 39.5881C967.075 42.9616 969.743 45.7744 973.081 45.9866C973.221 45.9955 973.36 46 973.5 46C977.09 46 980 43.0644 980 39.4429C980 37.3562 979.032 35.4974 977.526 34.2977C977.032 33.9045 976.749 33.3035 976.749 32.6691V11.2774C976.747 9.47451 975.285 8 973.5 8Z" fill="#B8DAFA"/>
<path d="M973.5 23C972.674 23 972 23.6048 972 24.345V38.655C972 39.3952 972.674 40 973.5 40C974.326 40 975 39.3952 975 38.655V24.3471C975 23.6068 974.326 23 973.5 23Z" fill="#B8DAFA"/>
<path d="M973.5 44C975.985 44 978 41.9853 978 39.5C978 37.0147 975.985 35 973.5 35C971.015 35 969 37.0147 969 39.5C969 41.9853 971.015 44 973.5 44Z" fill="#B8DAFA"/>
<path fill-rule="evenodd" clip-rule="evenodd" d="M974 17H970.5V16H974V17Z" fill="#B8DAFA"/>
<path fill-rule="evenodd" clip-rule="evenodd" d="M973 20H970.5V19H973V20Z" fill="#B8DAFA"/>
<path fill-rule="evenodd" clip-rule="evenodd" d="M973 23H970.5V22H973V23Z" fill="#B8DAFA"/>
<circle cx="973.5" cy="157.5" r="26.5" fill="white" stroke="#B8DAFA" stroke-width="2"/>
<circle cx="973.5" cy="92.5" r="26.5" fill="white" stroke="#B8DAFA" stroke-width="2"/>
<path d="M978.875 94.3249C978.875 99.1149 974.874 103 969.936 103C964.998 103 961 99.1149 961 94.3249C961 89.6341 969.565 77.651 969.927 77.0069C969.932 76.9977 969.946 76.9977 969.951 77.0069C970.31 77.651 978.875 89.6364 978.875 94.3249Z" fill="white"/>
<path fill-rule="evenodd" clip-rule="evenodd" d="M970.585 77.9629C970.553 77.9159 970.523 77.8704 970.493 77.8264C970.211 77.4086 970.023 77.1294 969.961 77.0254C969.961 77.0246 969.96 77.0239 969.96 77.0232C969.956 77.0172 969.953 77.0117 969.951 77.0069C969.946 76.9977 969.932 76.9977 969.927 77.0069C969.924 77.0117 969.921 77.0172 969.917 77.0233C969.917 77.0239 969.917 77.0246 969.916 77.0252C969.855 77.1278 969.67 77.4012 969.394 77.8102C969.362 77.859 969.327 77.9098 969.292 77.9624C969.272 77.9911 969.253 78.0203 969.233 78.0501C967.121 81.1824 961 90.3594 961 94.3249C961 99.1149 964.998 103 969.936 103C974.874 103 978.875 99.1149 978.875 94.3249C978.875 90.3614 972.754 81.1833 970.644 78.0504C970.624 78.0207 970.604 77.9915 970.585 77.9629ZM969.938 79.0982C969.765 79.3554 969.575 79.6408 969.369 79.9505C968.521 81.2296 967.427 82.918 966.346 84.7279C965.264 86.5416 964.206 88.4574 963.423 90.1943C962.619 91.9765 962.179 93.4127 962.179 94.3249C962.179 98.4736 965.644 101.849 969.936 101.849C974.229 101.849 977.696 98.4732 977.696 94.3249C977.696 93.4133 977.256 91.9775 976.452 90.1953C975.669 88.4585 974.611 86.5425 973.529 84.7286C972.448 82.9186 971.355 81.23 970.507 79.9505C970.301 79.6408 970.111 79.3555 969.938 79.0982Z" fill="#B8DAFA"/>
<path fill-rule="evenodd" clip-rule="evenodd" d="M964.826 93.25C965.144 93.25 965.402 93.5092 965.402 93.829C965.402 96.4581 967.534 98.592 970.174 98.592C970.492 98.592 970.75 98.8512 970.75 99.171C970.75 99.4908 970.492 99.75 970.174 99.75C966.904 99.75 964.25 97.104 964.25 93.829C964.25 93.5092 964.508 93.25 964.826 93.25Z" fill="#B8DAFA"/>
<path fill-rule="evenodd" clip-rule="evenodd" d="M967.993 93.25C968.265 93.25 968.485 93.4715 968.485 93.7447C968.485 94.7188 969.276 95.5105 970.257 95.5105C970.529 95.5105 970.75 95.732 970.75 96.0053C970.75 96.2785 970.529 96.5 970.257 96.5C968.738 96.5 967.5 95.2713 967.5 93.7447C967.5 93.4715 967.721 93.25 967.993 93.25Z" fill="#B8DAFA"/>
<path d="M987 88.9143C987 90.4114 985.545 91.625 983.75 91.625C981.955 91.625 980.5 90.4114 980.5 88.9143C980.5 87.4479 983.616 83.7039 983.745 83.5016C983.747 83.4995 983.75 83.4995 983.753 83.5016C983.884 83.7039 987 87.4479 987 88.9143Z" fill="white"/>
<path fill-rule="evenodd" clip-rule="evenodd" d="M984 90.651C984.997 90.651 985.794 89.754 985.794 88.6637C985.794 88.5179 985.711 88.117 985.445 87.4401C985.199 86.8164 984.861 86.1126 984.505 85.4289C984.335 85.1023 984.163 84.7857 984 84.4909C983.836 84.7857 983.665 85.1022 983.495 85.4287C983.139 86.1125 982.801 86.8163 982.555 87.4401C982.289 88.117 982.206 88.5179 982.206 88.6637C982.206 89.754 983.003 90.651 984 90.651ZM983.281 83.2352C982.394 84.7923 981 87.4073 981 88.6637C981 90.5064 982.343 92 984 92C985.657 92 987 90.5064 987 88.6637C987 87.4072 985.606 84.7918 984.718 83.2348C984.697 83.1989 984.677 83.1636 984.657 83.1289C984.465 82.7936 984.3 82.5134 984.183 82.315C984.098 82.1706 984.039 82.0695 984.013 82.0221C984.01 82.0168 984.008 82.0122 984.006 82.0083C984.004 82.006 984.003 82.0039 984.002 82.002C984 81.9993 983.998 81.9993 983.995 82.002C983.994 82.0039 983.993 82.0061 983.992 82.0084C983.99 82.0122 983.988 82.0167 983.985 82.0217C983.958 82.0709 983.895 82.1789 983.804 82.3338C983.688 82.5311 983.528 82.8045 983.341 83.1297C983.321 83.1643 983.301 83.1995 983.281 83.2352Z" fill="#B8DAFA"/>
<path d="M987 104.62C987 107.314 984.819 109.5 982.125 109.5C979.431 109.5 977.25 107.316 977.25 104.62C977.25 101.983 981.921 95.2398 982.118 94.8787C982.12 94.8738 982.127 94.8738 982.13 94.8787C982.329 95.2398 987 101.983 987 104.62Z" fill="white"/>
<path fill-rule="evenodd" clip-rule="evenodd" d="M982.801 95.9137C982.649 95.6778 982.515 95.4746 982.409 95.3114C982.265 95.0915 982.168 94.9445 982.136 94.8887C982.135 94.8883 982.135 94.888 982.135 94.8876C982.133 94.8843 982.131 94.8813 982.13 94.8787C982.127 94.8738 982.12 94.8738 982.118 94.8787C982.116 94.8813 982.114 94.8843 982.113 94.8875C982.112 94.888 982.112 94.8884 982.112 94.8889C982.079 94.9463 981.978 95.0996 981.828 95.3291C981.723 95.4893 981.594 95.6866 981.447 95.9143C981.427 95.9446 981.407 95.9755 981.387 96.0068C980.025 98.1155 977.25 102.587 977.25 104.62C977.25 107.316 979.431 109.5 982.125 109.5C984.819 109.5 987 107.314 987 104.62C987 102.587 984.225 98.115 982.861 96.0064C982.841 95.975 982.821 95.9441 982.801 95.9137ZM982.125 97.1451C981.697 97.8166 981.183 98.6437 980.675 99.5207C980.09 100.532 979.526 101.588 979.111 102.536C978.675 103.533 978.483 104.241 978.483 104.62C978.483 106.624 980.105 108.259 982.125 108.259C984.144 108.259 985.767 106.622 985.767 104.62C985.767 104.241 985.575 103.533 985.139 102.536C984.724 101.588 984.16 100.532 983.574 99.5208C983.067 98.6437 982.553 97.8165 982.125 97.1451Z" fill="#B8DAFA"/>
<path d="M645 398H922.5L1064.5 540" stroke="#B8DAFA"/>
<path d="M973.5 167.36C980.867 167.36 986.84 161.388 986.84 154.02C986.84 146.653 980.867 140.68 973.5 140.68C966.133 140.68 960.16 146.653 960.16 154.02C960.16 161.388 966.133 167.36 973.5 167.36Z" fill="white"/>
<path fill-rule="evenodd" clip-rule="evenodd" d="M973.5 142.098C966.916 142.098 961.578 147.436 961.578 154.02C961.578 160.604 966.916 165.942 973.5 165.942C980.084 165.942 985.422 160.604 985.422 154.02C985.422 147.436 980.084 142.098 973.5 142.098ZM959 154.02C959 146.012 965.492 139.52 973.5 139.52C981.508 139.52 988 146.012 988 154.02C988 162.028 981.508 168.52 973.5 168.52C965.492 168.52 959 162.028 959 154.02Z" fill="#B8DAFA"/>
<path fill-rule="evenodd" clip-rule="evenodd" d="M979.322 146.808L980.338 145.857C982.667 147.909 984.118 150.812 984.12 154.023C984.12 157.229 982.669 160.132 980.338 162.184L979.322 161.232C981.364 159.429 982.651 156.867 982.651 154.02C982.651 151.173 981.364 148.611 979.322 146.808Z" fill="#B8DAFA"/>
<path d="M974.08 167.36H972.92V173.16H974.08V167.36Z" fill="#B8DAFA"/>
<path d="M979.912 173.16H967.088C966.468 173.16 965.96 173.595 965.96 174.126V174.514C965.96 175.045 966.468 175.48 967.088 175.48H979.912C980.532 175.48 981.04 175.045 981.04 174.514V174.126C981.042 173.595 980.535 173.16 979.912 173.16Z" fill="#B8DAFA"/>
<path d="M975.24 156.416C975.24 157.337 974.46 158.08 973.5 158.08C972.538 158.08 971.76 157.334 971.76 156.416C971.76 155.496 973.5 148.8 973.5 148.8C973.5 148.8 975.24 155.496 975.24 156.416Z" fill="#B8DAFA"/>
<path fill-rule="evenodd" clip-rule="evenodd" d="M972.92 145.32V141.84H974.08V145.32H972.92Z" fill="#B8DAFA"/>
<path fill-rule="evenodd" clip-rule="evenodd" d="M964.48 155.16L961 155.16L961 154L964.48 154L964.48 155.16Z" fill="#B8DAFA"/>
<path d="M605.5 435H699.5L826 561.5" stroke="#B8DAFA"/>
<circle cx="860.5" cy="578.5" r="26.5" fill="white" stroke="#B8DAFA" stroke-width="2"/>
<path fill-rule="evenodd" clip-rule="evenodd" d="M860.5 563.534C864.348 563.534 867.495 566.713 867.495 570.581V578.419C867.495 582.287 864.348 585.466 860.5 585.466C856.652 585.466 853.505 582.287 853.505 578.419V570.581C853.505 566.713 856.652 563.534 860.5 563.534ZM870 570.581C870 565.305 865.723 561 860.5 561C855.277 561 851 565.305 851 570.581V578.419C851 583.695 855.277 588 860.5 588C865.723 588 870 583.695 870 578.419V570.581Z" fill="#B8DAFA"/>
<path d="M849.253 579V579.019C849.253 584.964 854.298 589.8 860.5 589.8C866.702 589.8 871.747 584.962 871.747 579.019V579H873V579.019C873 585.627 867.391 591 860.5 591C853.606 591 848 585.624 848 579.019V579H849.253Z" fill="#B8DAFA"/>
<path fill-rule="evenodd" clip-rule="evenodd" d="M873 579H871.444V579.17C871.444 584.878 866.535 589.526 860.5 589.526C854.465 589.526 849.556 584.881 849.556 579.17V579.152H849.396V579H848V579.17C848 585.693 853.607 591 860.5 591C867.391 591 873 585.695 873 579.17V579ZM849.237 579.304C849.313 585.121 854.336 589.83 860.5 589.83C866.664 589.83 871.687 585.119 871.763 579.304H872.68C872.604 585.598 867.169 590.696 860.5 590.696C853.829 590.696 848.396 585.596 848.32 579.304H849.237Z" fill="#B8DAFA"/>
<path fill-rule="evenodd" clip-rule="evenodd" d="M861 597V591H860V597H861Z" fill="#B8DAFA"/>
<path fill-rule="evenodd" clip-rule="evenodd" d="M866 597C866 596.448 865.511 596 864.908 596H856.092C855.489 596 855 596.448 855 597C855 597.552 855.489 598 856.092 598H864.908C865.511 598 866 597.552 866 597Z" fill="#B8DAFA"/>
<circle r="26.5" transform="matrix(1 0 0 -1 1100.5 636.5)" fill="white" stroke="#B8DAFA" stroke-width="2"/>
<circle r="26.5" transform="matrix(1 0 0 -1 1100.5 571.5)" fill="white" stroke="#B8DAFA" stroke-width="2"/>
<circle r="26.5" transform="matrix(1 0 0 -1 1100.5 506.5)" fill="white" stroke="#B8DAFA" stroke-width="2"/>
<path fill-rule="evenodd" clip-rule="evenodd" d="M1106.13 627.967C1111.11 627.967 1115.14 632.003 1115.14 636.981C1115.14 641.96 1111.11 645.996 1106.13 645.996C1102.84 645.996 1099.96 644.234 1098.38 641.602C1098.34 641.416 1098.24 641.249 1098.11 641.114C1097.47 639.876 1097.11 638.471 1097.11 636.981C1097.11 632.003 1101.15 627.967 1106.13 627.967ZM1095.81 640.751C1095.5 639.913 1095.3 639.027 1095.2 638.108C1095.13 638.122 1095.06 638.129 1094.98 638.129H1085.15C1084.51 638.129 1084 637.615 1084 636.982C1084 636.348 1084.51 635.834 1085.15 635.834H1094.98C1095.06 635.834 1095.13 635.842 1095.2 635.855C1095.3 634.936 1095.5 634.05 1095.81 633.212H1091.05C1090.41 633.212 1089.9 632.698 1089.9 632.064C1089.9 631.431 1090.41 630.917 1091.05 630.917H1096.95L1096.97 630.917C1097.63 629.916 1098.46 629.029 1099.41 628.295H1098.26C1097.63 628.295 1097.11 627.781 1097.11 627.147C1097.11 626.514 1097.63 626 1098.26 626H1104.82C1104.93 626 1105.03 626.016 1105.13 626.044C1105.46 626.015 1105.79 626 1106.13 626C1112.19 626 1117.11 630.917 1117.11 636.981C1117.11 643.046 1112.19 647.963 1106.13 647.963C1105.96 647.963 1105.8 647.959 1105.63 647.952C1105.58 647.959 1105.53 647.963 1105.47 647.963H1097.28C1096.64 647.963 1096.13 647.449 1096.13 646.816C1096.13 646.182 1096.64 645.668 1097.28 645.668H1099.41C1098.46 644.934 1097.64 644.048 1096.97 643.046H1089.74C1089.1 643.046 1088.59 642.532 1088.59 641.899C1088.59 641.265 1089.1 640.751 1089.74 640.751H1095.81ZM1091.7 647.963C1091.07 647.963 1090.56 647.449 1090.56 646.816C1090.56 646.182 1091.07 645.668 1091.7 645.668H1094C1094.63 645.668 1095.15 646.182 1095.15 646.816C1095.15 647.449 1094.63 647.963 1094 647.963H1091.7ZM1084 641.899C1084 642.532 1084.51 643.046 1085.15 643.046C1085.78 643.046 1086.29 642.532 1086.29 641.899C1086.29 641.265 1085.78 640.751 1085.15 640.751C1084.51 640.751 1084 641.265 1084 641.899ZM1092.36 628.295C1091.73 628.295 1091.21 627.781 1091.21 627.147C1091.21 626.514 1091.73 626 1092.36 626H1094.98C1095.62 626 1096.13 626.514 1096.13 627.147C1096.13 627.781 1095.62 628.295 1094.98 628.295H1092.36Z" fill="#B8DAFA"/>
<path fill-rule="evenodd" clip-rule="evenodd" d="M1108.39 571.811C1108.39 567.441 1104.85 563.899 1100.48 563.899C1096.11 563.899 1092.57 567.441 1092.57 571.811C1092.57 576.18 1096.11 579.723 1100.48 579.723C1104.85 579.723 1108.39 576.18 1108.39 571.811ZM1110.29 571.811C1110.29 566.392 1105.9 562 1100.48 562C1095.06 562 1090.67 566.392 1090.67 571.811C1090.67 577.229 1095.06 581.622 1100.48 581.622C1105.9 581.622 1110.29 577.229 1110.29 571.811ZM1112.31 571.995C1112.31 570.241 1112.08 568.543 1111.67 566.92C1111.49 566.234 1112.09 565.596 1112.78 565.729C1113.15 565.798 1113.45 566.069 1113.55 566.433C1114 568.214 1114.25 570.077 1114.25 571.998C1114.25 573.92 1114 575.783 1113.55 577.564C1113.45 577.927 1113.15 578.199 1112.78 578.267C1112.09 578.398 1111.49 577.763 1111.67 577.077C1112.08 575.447 1112.31 573.748 1112.31 571.995ZM1115.95 571.878C1115.95 570.925 1115.85 569.994 1115.67 569.095C1115.57 568.586 1116.02 568.134 1116.53 568.23C1116.82 568.285 1117.05 568.505 1117.11 568.796C1117.32 569.792 1117.43 570.823 1117.43 571.878C1117.43 572.933 1117.32 573.965 1117.11 574.96C1117.05 575.248 1116.82 575.472 1116.53 575.526C1116.02 575.622 1115.57 575.17 1115.67 574.661C1115.85 573.762 1115.95 572.832 1115.95 571.878ZM1085.38 573.818C1085.24 573.109 1085.16 572.376 1085.16 571.624C1085.16 570.873 1085.24 570.141 1085.38 569.431C1085.47 569.029 1085.11 568.673 1084.71 568.749C1084.48 568.792 1084.29 568.968 1084.25 569.195C1084.09 569.98 1084 570.793 1084 571.624C1084 572.456 1084.09 573.269 1084.25 574.053C1084.29 574.283 1084.48 574.457 1084.71 574.5C1085.11 574.575 1085.47 574.219 1085.38 573.818ZM1088.79 571.563C1088.79 573.316 1089.02 575.014 1089.44 576.637C1089.61 577.324 1089.01 577.962 1088.32 577.828C1087.95 577.759 1087.65 577.488 1087.56 577.125C1087.1 575.344 1086.85 573.481 1086.85 571.559C1086.85 569.638 1087.1 567.774 1087.56 565.994C1087.65 565.63 1087.95 565.359 1088.32 565.29C1089.01 565.16 1089.61 565.795 1089.44 566.481C1089.02 568.111 1088.79 569.813 1088.79 571.563Z" fill="#B8DAFA"/>
<path fill-rule="evenodd" clip-rule="evenodd" d="M1118.59 506.5C1118.59 496.51 1110.49 488.412 1100.5 488.412C1090.51 488.412 1082.41 496.51 1082.41 506.5C1082.41 516.49 1090.51 524.588 1100.5 524.588C1110.49 524.588 1118.59 516.49 1118.59 506.5ZM1121 506.5C1121 495.178 1111.82 486 1100.5 486C1089.18 486 1080 495.178 1080 506.5C1080 517.822 1089.18 527 1100.5 527C1111.82 527 1121 517.822 1121 506.5ZM1101.26 522.444C1101.26 522.864 1100.92 523.204 1100.5 523.204C1100.08 523.204 1099.74 522.864 1099.74 522.444L1099.74 519.386C1093.22 519.007 1087.99 513.783 1087.61 507.259H1084.56C1084.14 507.259 1083.8 506.919 1083.8 506.5C1083.8 506.08 1084.14 505.741 1084.56 505.741H1087.61C1087.99 499.217 1093.22 493.993 1099.74 493.615L1099.74 490.555C1099.74 490.136 1100.08 489.796 1100.5 489.796C1100.92 489.796 1101.26 490.136 1101.26 490.555V493.615C1107.78 493.993 1113.01 499.217 1113.39 505.741H1116.44C1116.86 505.741 1117.2 506.08 1117.2 506.5C1117.2 506.919 1116.86 507.259 1116.44 507.259H1113.39C1113.01 513.783 1107.78 519.007 1101.26 519.386V522.444ZM1089.11 506.5C1089.11 512.784 1094.2 517.88 1100.48 517.889L1100.5 517.889L1100.52 517.889C1106.8 517.88 1111.89 512.784 1111.89 506.5C1111.89 500.21 1106.79 495.111 1100.5 495.111C1094.21 495.111 1089.11 500.21 1089.11 506.5ZM1097.08 507.354L1100.5 516.75L1103.92 507.354L1100.5 508.343L1097.08 507.354ZM1100.5 504.657L1097.08 505.646L1100.5 496.25L1103.92 505.646L1100.5 504.657Z" fill="#B8DAFA"/>
<path d="M602.5 359H1001L1037.5 322.5" stroke="#B8DAFA"/>
<circle r="26.5" transform="matrix(-1 0 0 1 1072.5 422.5)" fill="white" stroke="#B8DAFA" stroke-width="2"/>
<circle r="26.5" transform="matrix(-1 0 0 1 1072.5 227.5)" fill="white" stroke="#B8DAFA" stroke-width="2"/>
<circle r="26.5" transform="matrix(-1 0 0 1 1072.5 357.5)" fill="white" stroke="#B8DAFA" stroke-width="2"/>
<circle r="26.5" transform="matrix(-1 0 0 1 1072.5 292.5)" fill="white" stroke="#B8DAFA" stroke-width="2"/>
<path d="M1061.6 410.261L1065.59 414.255C1065.11 414.662 1064.66 415.109 1064.25 415.592L1060.26 411.598C1060.08 411.419 1059.98 411.183 1059.98 410.929C1059.98 410.678 1060.08 410.439 1060.26 410.261C1060.63 409.894 1061.23 409.894 1061.6 410.261Z" fill="#B8DAFA"/>
<path d="M1065.85 422.511C1066.07 418.939 1068.94 416.077 1072.51 415.853C1072.66 415.843 1072.81 415.838 1072.96 415.838C1074.86 415.838 1076.68 416.586 1078.02 417.928C1079.47 419.376 1080.23 421.386 1080.1 423.44C1079.87 427.011 1077.01 429.874 1073.44 430.098C1071.38 430.228 1069.37 429.471 1067.93 428.023C1066.48 426.575 1065.72 424.564 1065.85 422.511ZM1072.97 428.223V417.728C1070.08 417.728 1067.73 420.081 1067.73 422.977C1067.73 425.868 1070.08 428.223 1072.97 428.223Z" fill="#B8DAFA"/>
<path d="M1073.92 405.944V411.581C1073.58 411.55 1073.27 411.535 1072.97 411.535C1072.67 411.535 1072.36 411.55 1072.03 411.581V405.944C1072.03 405.425 1072.45 405 1072.97 405C1073.49 405 1073.92 405.425 1073.92 405.944Z" fill="#B8DAFA"/>
<path d="M1055.94 423.92C1055.42 423.92 1055 423.495 1055 422.974C1055 422.453 1055.42 422.028 1055.94 422.028H1061.58C1061.55 422.363 1061.53 422.672 1061.53 422.974C1061.53 423.276 1061.55 423.584 1061.58 423.92H1055.94Z" fill="#B8DAFA"/>
<path d="M1084.35 435.682L1080.36 431.69C1080.84 431.283 1081.28 430.836 1081.69 430.353L1085.68 434.345C1086.05 434.714 1086.05 435.313 1085.68 435.682C1085.32 436.051 1084.71 436.051 1084.35 435.682Z" fill="#B8DAFA"/>
<path d="M1090 422.03C1090.52 422.03 1090.95 422.453 1090.95 422.974C1090.95 423.495 1090.52 423.92 1090 423.92H1084.36C1084.4 423.584 1084.41 423.276 1084.41 422.974C1084.41 422.672 1084.4 422.363 1084.36 422.028H1090V422.03Z" fill="#B8DAFA"/>
<path d="M1073.92 434.369V440.007C1073.92 440.528 1073.49 440.95 1072.97 440.95C1072.45 440.95 1072.03 440.525 1072.03 440.007V434.369C1072.7 434.432 1073.25 434.432 1073.92 434.369Z" fill="#B8DAFA"/>
<path d="M1060.26 435.684L1060.25 435.675C1060.08 435.499 1059.98 435.265 1059.98 435.016C1059.98 434.763 1060.08 434.526 1060.26 434.347L1064.25 430.356C1064.66 430.839 1065.11 431.285 1065.59 431.693L1061.6 435.684C1061.23 436.051 1060.63 436.051 1060.26 435.684Z" fill="#B8DAFA"/>
<path d="M1085.68 410.264L1085.69 410.273C1085.87 410.449 1085.96 410.683 1085.96 410.932C1085.96 411.185 1085.86 411.422 1085.68 411.6L1081.69 415.592C1081.28 415.109 1080.83 414.663 1080.35 414.255L1084.35 410.264C1084.71 409.894 1085.31 409.894 1085.68 410.264Z" fill="#B8DAFA"/>
<path fill-rule="evenodd" clip-rule="evenodd" d="M1080.35 210.782C1077.95 209.641 1075.28 209 1072.45 209C1062.28 209 1054 217.298 1054 227.498C1054 231.865 1055.52 235.882 1058.05 239.049C1058.31 238.682 1058.6 238.346 1058.94 238.048C1056.67 235.134 1055.32 231.47 1055.32 227.498C1055.32 218.026 1063.01 210.32 1072.45 210.32C1075 210.32 1077.41 210.879 1079.58 211.881C1079.8 211.483 1080.05 211.115 1080.35 210.782ZM1084.58 219.938C1087.52 219.938 1089.91 217.54 1089.91 214.593C1089.91 211.646 1087.52 209.248 1084.58 209.248C1081.64 209.248 1079.25 211.646 1079.25 214.593C1079.25 217.54 1081.64 219.938 1084.58 219.938ZM1084.58 210.907C1086.61 210.907 1088.26 212.56 1088.26 214.593C1088.26 216.626 1086.61 218.279 1084.58 218.279C1082.55 218.279 1080.9 216.626 1080.9 214.593C1080.9 212.56 1082.55 210.907 1084.58 210.907ZM1065.99 222.921C1067.42 222.921 1068.59 221.75 1068.59 220.311C1068.59 218.872 1067.42 217.701 1065.99 217.701C1064.55 217.701 1063.38 218.872 1063.38 220.311C1063.38 221.75 1064.55 222.921 1065.99 222.921ZM1065.99 218.511C1066.98 218.511 1067.78 219.318 1067.78 220.311C1067.78 221.304 1066.98 222.111 1065.99 222.111C1065 222.111 1064.19 221.304 1064.19 220.311C1064.19 219.318 1065 218.511 1065.99 218.511ZM1066.11 242.311C1066.11 244.093 1064.61 245.543 1062.76 245.543C1060.92 245.543 1059.41 244.093 1059.41 242.311C1059.41 240.529 1060.92 239.079 1062.76 239.079C1064.61 239.079 1066.11 240.529 1066.11 242.311ZM1065.07 242.311C1065.07 241.082 1064.04 240.083 1062.76 240.083C1061.49 240.083 1060.45 241.082 1060.45 242.311C1060.45 243.54 1061.49 244.54 1062.76 244.54C1064.04 244.54 1065.07 243.54 1065.07 242.311ZM1072.45 231.761C1074.79 231.761 1076.7 229.849 1076.7 227.5C1076.7 225.151 1074.79 223.239 1072.45 223.239C1070.11 223.239 1068.2 225.151 1068.2 227.5C1068.2 229.849 1070.11 231.761 1072.45 231.761ZM1072.45 224.562C1074.07 224.562 1075.38 225.879 1075.38 227.5C1075.38 229.121 1074.07 230.438 1072.45 230.438C1070.84 230.438 1069.52 229.121 1069.52 227.5C1069.52 225.879 1070.84 224.562 1072.45 224.562ZM1062.8 227.5C1062.8 226.59 1062.93 225.708 1063.17 224.872C1062.75 224.681 1062.36 224.442 1062.01 224.156C1061.67 225.21 1061.49 226.334 1061.49 227.497C1061.49 233.558 1066.41 238.49 1072.45 238.49C1078.5 238.49 1083.42 233.561 1083.42 227.497C1083.42 221.437 1078.5 216.505 1072.45 216.505C1071.74 216.505 1071.06 216.574 1070.39 216.704C1070.62 217.089 1070.81 217.504 1070.95 217.944C1071.44 217.867 1071.94 217.827 1072.45 217.827C1077.77 217.827 1082.1 222.168 1082.1 227.5C1082.1 232.835 1077.77 237.173 1072.45 237.173C1067.13 237.173 1062.8 232.832 1062.8 227.5ZM1072.45 244.68C1081.9 244.68 1089.59 236.974 1089.59 227.5C1089.59 224.589 1088.86 221.844 1087.58 219.441C1087.96 219.204 1088.31 218.926 1088.63 218.608C1090.08 221.248 1090.9 224.278 1090.9 227.5C1090.9 237.702 1082.63 246 1072.45 246C1070.75 246 1069.11 245.769 1067.55 245.336C1067.78 244.958 1067.97 244.553 1068.12 244.123C1069.5 244.483 1070.95 244.68 1072.45 244.68Z" fill="#B8DAFA"/>
<path d="M1062.65 287.923C1063.69 287.597 1064.84 287.973 1065.49 288.859L1066.86 290.698L1068.01 281.027C1068.07 280.412 1068.37 279.86 1068.85 279.474C1069.33 279.086 1069.92 278.909 1070.53 278.977C1070.91 279.019 1071.26 279.154 1071.55 279.356C1071.76 278.001 1072.88 277.026 1074.09 277.163C1074.72 277.233 1075.27 277.578 1075.65 278.135C1075.98 278.628 1076.14 279.236 1076.1 279.861C1076.44 279.728 1076.81 279.677 1077.18 279.718C1077.79 279.786 1078.33 280.089 1078.71 280.575C1079.1 281.156 1078.91 282.977 1078.93 283.457C1079.45 283.244 1080.05 283.229 1080.62 283.444C1080.81 283.517 1081 283.62 1081.16 283.749C1081.83 284.268 1082.15 285.051 1082.07 285.854L1081.49 297.479C1081.2 300.168 1079.77 302.537 1077.55 304.034L1076.55 309.701C1076.53 310.042 1076.25 310.304 1075.91 310.304H1065.99C1065.81 310.304 1065.64 310.226 1065.52 310.087C1065.39 309.95 1065.34 309.766 1065.36 309.584L1065.96 304.042C1065.08 303.14 1064.26 300.72 1064.12 297.3L1060.95 291.284C1060.77 290.699 1060.77 290.067 1060.99 289.496C1061.28 288.727 1061.89 288.16 1062.65 287.923ZM1067 293.056L1064.49 289.67C1064.21 289.284 1063.75 289.054 1063.27 289.11C1062.74 289.173 1062.31 289.53 1062.15 290.046C1062.07 290.317 1062.08 290.608 1062.16 290.878L1065.37 296.997C1065.39 297.054 1065.4 297.116 1065.4 297.176C1065.49 300.332 1066.31 302.575 1067 303.27L1067.08 303.348C1067.22 303.487 1067.28 303.682 1067.26 303.878L1066.71 309.009H1075.32L1076.3 303.62C1076.31 303.413 1076.42 303.225 1076.6 303.115C1078.64 301.845 1079.96 299.741 1080.22 297.341L1080.8 285.713C1080.83 285.446 1080.75 285.182 1080.58 284.97C1080.41 284.758 1080.17 284.625 1079.9 284.594C1079.63 284.565 1079.37 284.641 1079.16 284.81C1078.95 284.98 1078.82 285.219 1078.79 285.488L1078.19 292.02C1078.14 292.476 1077.62 292.847 1077.18 292.574C1076.96 292.439 1076.85 292.173 1076.87 291.911L1077.93 282.136C1077.96 281.864 1077.89 281.597 1077.72 281.384C1077.55 281.171 1077.31 281.037 1077.04 281.006C1076.77 280.977 1076.51 281.053 1076.3 281.224C1076.09 281.395 1075.96 281.64 1075.93 281.912L1074.86 291.722C1074.82 292.093 1074.49 292.333 1074.13 292.292C1073.78 292.253 1073.51 291.944 1073.55 291.575L1074.82 279.85C1074.86 279.488 1074.78 279.141 1074.59 278.869C1074.43 278.628 1074.2 278.48 1073.95 278.453C1073.4 278.391 1072.89 278.917 1072.81 279.625L1071.54 291.352C1071.5 291.722 1071.16 291.963 1070.81 291.922C1070.45 291.883 1070.18 291.575 1070.22 291.204L1071.28 281.433C1071.34 280.912 1071.02 280.404 1070.52 280.285C1070.11 280.189 1069.7 280.345 1069.45 280.703C1069.35 280.84 1069.3 281.003 1069.28 281.169V281.176L1067.97 292.191L1068.04 292.577C1068.15 293.144 1067.45 293.538 1067.06 293.119C1067.04 293.101 1067.02 293.079 1067 293.056Z" fill="#B8DAFA"/>
<path d="M1059.35 285.4C1059 285.4 1058.71 285.11 1058.71 284.752C1058.71 284.394 1059 284.104 1059.35 284.104C1059.7 284.104 1059.99 284.394 1059.99 284.752C1059.99 285.11 1059.7 285.4 1059.35 285.4Z" fill="#B8DAFA"/>
<path d="M1064.11 277.524C1064.09 277.541 1061.83 279.208 1060.64 282.224C1060.5 282.571 1060.09 282.729 1059.76 282.565C1059.47 282.416 1059.33 282.052 1059.45 281.742C1060.78 278.378 1063.26 276.545 1063.37 276.469C1063.65 276.26 1064.05 276.327 1064.26 276.619C1064.46 276.91 1064.4 277.316 1064.11 277.524Z" fill="#B8DAFA"/>
<path d="M1064.16 279.353C1064.43 279.119 1064.83 279.148 1065.06 279.418C1065.29 279.689 1065.26 280.097 1065 280.334C1064.97 280.356 1062.4 282.674 1062.27 286.371C1062.25 286.748 1061.91 287.04 1061.54 286.989C1061.22 286.945 1060.98 286.652 1060.99 286.323C1061.15 282.047 1064.04 279.461 1064.16 279.353Z" fill="#B8DAFA"/>
<path d="M1085.8 286.471C1085.63 286.162 1085.73 285.765 1086.04 285.586C1086.34 285.406 1086.73 285.512 1086.91 285.822C1086.96 285.91 1088.11 287.968 1087.99 290.714C1087.98 291.043 1087.71 291.315 1087.39 291.333C1087.01 291.352 1086.7 291.033 1086.71 290.655C1086.82 288.304 1085.81 286.489 1085.8 286.471Z" fill="#B8DAFA"/>
<path d="M1085.08 288.773C1085.1 288.862 1085.72 290.974 1085.21 293.223C1085.13 293.559 1084.8 293.779 1084.47 293.715C1084.11 293.647 1083.88 293.287 1083.96 292.932C1084.39 291.033 1083.86 289.172 1083.85 289.146C1083.75 288.802 1083.94 288.442 1084.28 288.338C1084.62 288.235 1084.97 288.431 1085.08 288.773Z" fill="#B8DAFA"/>
<path fill-rule="evenodd" clip-rule="evenodd" d="M1072.91 340.012C1069.26 339.886 1065.83 340.757 1062.9 342.364L1062.9 342.364C1057.77 345.179 1057.47 351.807 1061.69 355.491C1061.71 355.509 1061.72 355.519 1061.73 355.529C1061.74 355.535 1061.74 355.538 1061.74 355.538L1061.74 355.541L1061.75 355.544C1062.58 356.39 1062.93 357.294 1062.93 358.099C1062.94 358.892 1062.6 359.701 1061.81 360.397L1061.78 360.421L1061.76 360.447C1061.31 360.891 1061.04 361.031 1060.94 361.073C1060.93 361.072 1060.93 361.071 1060.93 361.07C1060.82 360.978 1060.73 360.868 1060.56 360.671C1060.51 360.605 1060.44 360.529 1060.37 360.441C1060.25 360.299 1060.07 360.103 1059.87 359.931C1059.66 359.76 1059.32 359.535 1058.85 359.464L1058.6 359.426L1058.35 359.48C1057.59 359.642 1057 359.991 1056.55 360.38C1054.73 361.932 1054.57 364.496 1055.78 366.342C1059.03 371.288 1065.39 376 1072.21 376C1082.77 376 1091.29 367.66 1090.99 357.488C1090.72 348.079 1082.74 340.349 1072.91 340.012M1064.23 344.582C1066.74 343.206 1069.68 342.459 1072.81 342.568L1072.81 342.568C1081.22 342.855 1088.08 349.49 1088.32 357.558M1064.23 344.582C1060.85 346.439 1060.46 350.957 1063.5 353.606L1063.5 353.611L1063.51 353.622C1063.55 353.656 1063.63 353.72 1063.7 353.795C1064.92 355.044 1065.61 356.551 1065.61 358.094C1065.61 359.637 1064.93 361.102 1063.66 362.246C1062.94 362.952 1062.19 363.459 1061.37 363.605C1060.44 363.769 1059.71 363.425 1059.22 363.035C1058.9 362.778 1058.61 362.437 1058.42 362.214C1058.39 362.236 1058.36 362.26 1058.33 362.285L1058.33 362.287L1058.33 362.289C1057.6 362.909 1057.44 364.057 1058.05 364.981C1060.99 369.457 1066.6 373.443 1072.21 373.443C1081.26 373.443 1088.57 366.294 1088.32 357.558M1058.12 361.872C1058.12 361.87 1058.12 361.871 1058.13 361.873C1058.12 361.873 1058.12 361.872 1058.12 361.872Z" fill="#B8DAFA"/>
<path fill-rule="evenodd" clip-rule="evenodd" d="M1080.11 347.601C1081.4 347.601 1082.45 348.65 1082.45 349.947C1082.45 351.245 1081.4 352.294 1080.11 352.294C1078.81 352.294 1077.76 351.245 1077.76 349.947C1077.76 348.65 1078.81 347.601 1080.11 347.601ZM1083.42 349.947C1083.42 348.117 1081.94 346.632 1080.11 346.632C1078.27 346.632 1076.79 348.117 1076.79 349.947C1076.79 351.777 1078.27 353.263 1080.11 353.263C1081.94 353.263 1083.42 351.777 1083.42 349.947Z" fill="#B8DAFA"/>
<path fill-rule="evenodd" clip-rule="evenodd" d="M1080.58 363.687C1081.62 363.687 1082.47 364.533 1082.47 365.579C1082.47 366.625 1081.62 367.471 1080.58 367.471C1079.54 367.471 1078.69 366.625 1078.69 365.579C1078.69 364.533 1079.54 363.687 1080.58 363.687ZM1083.42 365.579C1083.42 364.01 1082.15 362.737 1080.58 362.737C1079.01 362.737 1077.74 364.01 1077.74 365.579C1077.74 367.147 1079.01 368.421 1080.58 368.421C1082.15 368.421 1083.42 367.147 1083.42 365.579Z" fill="#B8DAFA"/>
<path fill-rule="evenodd" clip-rule="evenodd" d="M1074.89 369.292C1075.46 369.292 1075.92 369.749 1075.92 370.316C1075.92 370.882 1075.46 371.34 1074.89 371.34C1074.33 371.34 1073.87 370.882 1073.87 370.316C1073.87 369.749 1074.33 369.292 1074.89 369.292ZM1076.79 370.316C1076.79 369.27 1075.94 368.421 1074.89 368.421C1073.85 368.421 1073 369.27 1073 370.316C1073 371.361 1073.85 372.211 1074.89 372.211C1075.94 372.211 1076.79 371.361 1076.79 370.316Z" fill="#B8DAFA"/>
<path fill-rule="evenodd" clip-rule="evenodd" d="M1082.6 354.159C1084.51 354.159 1086.06 355.708 1086.06 357.616C1086.06 359.524 1084.51 361.072 1082.6 361.072C1080.69 361.072 1079.15 359.524 1079.15 357.616C1079.15 355.708 1080.69 354.159 1082.6 354.159Z" fill="#B8DAFA"/>
<path d="M215 287H113L60.5 234.5" stroke="#B8DAFA"/>
<circle r="26.5" transform="matrix(-1 0 0 1 27.5 184.5)" fill="white" stroke="#B8DAFA" stroke-width="2"/>
<circle r="26.5" transform="matrix(-1 0 0 1 27.5 249.5)" fill="white" stroke="#B8DAFA" stroke-width="2"/>
<path d="M18.0833 179.639C18.0833 178.486 19.0325 177.556 20.2083 177.556C21.3842 177.556 22.3333 178.486 22.3333 179.639C22.3333 180.792 21.3842 181.722 20.2083 181.722C19.0325 181.722 18.0833 180.792 18.0833 179.639ZM30.8333 180.333L27.2633 185.889L23.75 183.167L18.0833 191.444H37.9167L30.8333 180.333ZM42.1667 179.181V189.819C42.1667 192.25 40.155 194.222 37.6758 194.222H18.3242C15.845 194.222 13.8333 192.25 13.8333 189.819V179.181C13.8333 176.75 15.845 174.778 18.3242 174.778H37.6758C40.155 174.778 42.1667 176.75 42.1667 179.181ZM40.5092 172H15.4908C13.0117 172 11 173.972 11 176.403V192.597C11 195.028 13.0117 197 15.4908 197H40.5092C42.9883 197 45 195.028 45 192.597V176.403C45 173.972 42.9883 172 40.5092 172Z" fill="#B8DAFA"/>
<path d="M23.625 255.932V242.99L35.25 249.655L23.625 255.932ZM28.7917 236.583C35.3146 237.229 40.4167 242.757 40.4167 249.461C40.4167 251.36 40.0033 253.155 39.2671 254.77L41.5146 256.075C42.4575 254.06 43 251.838 43 249.461C43 241.324 36.7483 234.659 28.7917 234C28.7917 234 28.7917 236.596 28.7917 236.583ZM15.7329 254.783C14.9967 253.155 14.5833 251.36 14.5833 249.474C14.5833 242.77 19.6854 237.242 26.2083 236.596V234C18.2517 234.659 12 241.324 12 249.474C12 251.838 12.5425 254.073 13.4854 256.087C13.4854 256.075 15.7329 254.783 15.7329 254.783ZM37.9625 257.017C35.6246 260.272 31.8142 262.417 27.5 262.417C23.1858 262.417 19.3754 260.285 17.0375 257.017L14.7771 258.322C17.58 262.352 22.23 265 27.5 265C32.77 265 37.42 262.352 40.2229 258.322L37.9625 257.017Z" fill="#B8DAFA"/>
<path fill-rule="evenodd" clip-rule="evenodd" d="M320.5 751.514C306.133 751.514 294.486 739.867 294.486 725.5C294.486 711.133 306.133 699.486 320.5 699.486C334.867 699.486 346.514 711.133 346.514 725.5C346.514 739.867 334.867 751.514 320.5 751.514ZM320.5 753C305.312 753 293 740.688 293 725.5C293 710.312 305.312 698 320.5 698C335.688 698 348 710.312 348 725.5C348 740.688 335.688 753 320.5 753Z" fill="#B8DAFA"/>
<path d="M334.111 721.611C334.111 716.242 329.758 711.889 324.389 711.889H316.611C311.242 711.889 306.889 716.242 306.889 721.611V729.389C306.889 734.758 311.242 739.111 316.611 739.111H324.389C329.758 739.111 334.111 734.758 334.111 729.389V721.611Z" fill="white"/>
<path fill-rule="evenodd" clip-rule="evenodd" d="M315.5 709.667H325.5C331.483 709.667 336.333 714.517 336.333 720.5V730.5C336.333 736.483 331.483 741.333 325.5 741.333H315.5C309.517 741.333 304.667 736.483 304.667 730.5V720.5C304.667 714.517 309.517 709.667 315.5 709.667ZM325.5 708C332.404 708 338 713.596 338 720.5V730.5C338 737.404 332.404 743 325.5 743H315.5C308.596 743 303 737.404 303 730.5V720.5C303 713.596 308.596 708 315.5 708H325.5Z" fill="#B8DAFA"/>
<path d="M331.194 723.032C331.194 718.489 327.511 714.806 322.968 714.806H318.032C313.489 714.806 309.806 718.489 309.806 723.032V727.968C309.806 732.511 313.489 736.194 318.032 736.194H322.968C327.511 736.194 331.194 732.511 331.194 727.968V723.032Z" fill="white"/>
<path fill-rule="evenodd" clip-rule="evenodd" d="M318.481 718.096H322.519C325.493 718.096 327.904 720.507 327.904 723.481V727.519C327.904 730.493 325.493 732.904 322.519 732.904H318.481C315.507 732.904 313.096 730.493 313.096 727.519V723.481C313.096 720.507 315.507 718.096 318.481 718.096ZM322.519 716.75C326.237 716.75 329.25 719.763 329.25 723.481V727.519C329.25 731.237 326.237 734.25 322.519 734.25H318.481C314.763 734.25 311.75 731.237 311.75 727.519V723.481C311.75 719.763 314.763 716.75 318.481 716.75H322.519Z" fill="#B8DAFA"/>
<path d="M325.361 712.861H324.389V717.722H325.361V712.861Z" fill="#B8DAFA"/>
<path d="M322.444 712.861H321.472V717.722H322.444V712.861Z" fill="#B8DAFA"/>
<path d="M319.528 712.861H318.556V717.722H319.528V712.861Z" fill="#B8DAFA"/>
<path d="M316.611 712.861H315.639V717.722H316.611V712.861Z" fill="#B8DAFA"/>
<path d="M325.361 733.278H324.389V737.167H325.361V733.278Z" fill="#B8DAFA"/>
<path d="M322.444 733.278H321.472V737.167H322.444V733.278Z" fill="#B8DAFA"/>
<path d="M319.528 733.278H318.556V737.167H319.528V733.278Z" fill="#B8DAFA"/>
<path d="M316.611 733.278H315.639V737.167H316.611V733.278Z" fill="#B8DAFA"/>
<path d="M308.833 720.639L308.833 721.611L312.722 721.611L312.722 720.639L308.833 720.639Z" fill="#B8DAFA"/>
<path d="M308.833 723.556L308.833 724.528L312.722 724.528L312.722 723.556L308.833 723.556Z" fill="#B8DAFA"/>
<path d="M308.833 726.472L308.833 727.444L312.722 727.444L312.722 726.472L308.833 726.472Z" fill="#B8DAFA"/>
<path d="M308.833 729.389L308.833 730.361L312.722 730.361L312.722 729.389L308.833 729.389Z" fill="#B8DAFA"/>
<path d="M328.278 720.639L328.278 721.611L332.167 721.611L332.167 720.639L328.278 720.639Z" fill="#B8DAFA"/>
<path d="M328.278 723.556L328.278 724.528L332.167 724.528L332.167 723.556L328.278 723.556Z" fill="#B8DAFA"/>
<path d="M328.278 726.472L328.278 727.444L332.167 727.444L332.167 726.472L328.278 726.472Z" fill="#B8DAFA"/>
<path d="M328.278 729.389L328.278 730.361L332.167 730.361L332.167 729.389L328.278 729.389Z" fill="#B8DAFA"/>
<path fill-rule="evenodd" clip-rule="evenodd" d="M913.5 750.081C894.954 750.081 879.919 735.046 879.919 716.5C879.919 697.954 894.954 682.919 913.5 682.919C932.046 682.919 947.081 697.954 947.081 716.5C947.081 735.046 932.046 750.081 913.5 750.081ZM913.5 752C893.894 752 878 736.106 878 716.5C878 696.894 893.894 681 913.5 681C933.106 681 949 696.894 949 716.5C949 736.106 933.106 752 913.5 752Z" fill="#B8DAFA"/>
<rect x="886.5" y="706.5" width="53" height="21" rx="4.5" stroke="#88C2F6"/>
<circle cx="894" cy="717" r="3.5" stroke="#88C2F6"/>
<circle cx="932" cy="717" r="3.5" stroke="#88C2F6"/>
<mask id="path-345-inside-9" fill="white">
<path fill-rule="evenodd" clip-rule="evenodd" d="M903.144 709.957C901.372 709.957 899.987 711.484 900.158 713.247L900.724 719.076C900.998 721.894 903.367 724.044 906.199 724.044H908.054H918.095H919.951C922.782 724.044 925.151 721.894 925.425 719.076L925.991 713.247C926.163 711.484 924.777 709.957 923.006 709.957H918.095H908.054H903.144Z"/>
</mask>
<path d="M900.158 713.247L899.163 713.344L900.158 713.247ZM900.724 719.076L901.72 718.979L900.724 719.076ZM925.425 719.076L926.42 719.172V719.172L925.425 719.076ZM925.991 713.247L924.996 713.15V713.15L925.991 713.247ZM901.153 713.15C901.039 711.975 901.963 710.957 903.144 710.957V708.957C900.782 708.957 898.934 710.993 899.163 713.344L901.153 713.15ZM901.72 718.979L901.153 713.15L899.163 713.344L899.729 719.172L901.72 718.979ZM906.199 723.044C903.882 723.044 901.944 721.285 901.72 718.979L899.729 719.172C900.053 722.503 902.852 725.044 906.199 725.044V723.044ZM908.054 723.044H906.199V725.044H908.054V723.044ZM908.054 725.044H918.095V723.044H908.054V725.044ZM918.095 725.044H919.951V723.044H918.095V725.044ZM919.951 725.044C923.297 725.044 926.096 722.503 926.42 719.172L924.43 718.979C924.205 721.285 922.267 723.044 919.951 723.044V725.044ZM926.42 719.172L926.987 713.344L924.996 713.15L924.43 718.979L926.42 719.172ZM926.987 713.344C927.215 710.993 925.368 708.957 923.006 708.957V710.957C924.187 710.957 925.11 711.975 924.996 713.15L926.987 713.344ZM923.006 708.957H918.095V710.957H923.006V708.957ZM918.095 708.957H908.054V710.957H918.095V708.957ZM903.144 710.957H908.054V708.957H903.144V710.957Z" fill="#88C2F6" mask="url(#path-345-inside-9)"/>
<circle cx="904.5" cy="714.5" r="1" fill="#88C2F6" stroke="#88C2F6"/>
<circle cx="909.5" cy="714.5" r="1" fill="#88C2F6" stroke="#88C2F6"/>
<circle cx="913.5" cy="714.5" r="1" fill="#88C2F6" stroke="#88C2F6"/>
<circle cx="918.5" cy="714.5" r="1" fill="#88C2F6" stroke="#88C2F6"/>
<circle cx="905.5" cy="719.5" r="1" fill="#88C2F6" stroke="#88C2F6"/>
<circle cx="910.5" cy="719.5" r="1" fill="#88C2F6" stroke="#88C2F6"/>
<circle cx="915.5" cy="719.5" r="1" fill="#88C2F6" stroke="#88C2F6"/>
<circle cx="920.5" cy="719.5" r="1" fill="#88C2F6" stroke="#88C2F6"/>
<circle cx="922.5" cy="714.5" r="1" fill="#88C2F6" stroke="#88C2F6"/>
<path d="M877.5 686.5L742 551M742 551H685.5M742 551L714.5 523.5H685.5" stroke="#B8DAFA"/>
<path d="M360 726H443.5L590 579.5" stroke="#B8DAFA"/>
<defs>
<clipPath id="clip0">
<rect width="202.39" height="515.96" fill="white" transform="translate(493 110)"/>
</clipPath>
<clipPath id="clip1">
<rect width="165" height="274" fill="white" transform="translate(145 228)"/>
</clipPath>
</defs>
</svg>
