<svg width="211" height="32" xmlns="http://www.w3.org/2000/svg"><path d="M22.737 18.547a.205.205 0 0 1-.034-.184.203.203 0 0 1 .13-.136c1.682-.57 3.003-1.395 3.927-2.45 1.31-1.496 1.974-3.478 1.974-5.89 0-1.528-.264-2.896-.788-4.066-.542-1.22-1.409-2.247-2.575-3.056-1.11-.768-2.53-1.344-4.22-1.715-1.618-.355-3.575-.534-5.813-.534H.307A.307.307 0 0 0 0 .824v.094c0 .085.035.167.097.225l4.43 4.134a.3.3 0 0 0 .21.083H12.6c2.228 0 4.126.072 5.644.212 1.426.132 2.578.382 3.425.743.724.31 1.218.712 1.512 1.23.32.561.481 1.35.481 2.342 0 1-.162 1.782-.483 2.325-.299.509-.802.904-1.539 1.209-.855.356-2.019.598-3.457.718-1.538.128-3.445.191-5.666.191H4.74a.303.303 0 0 0-.168.05L.141 17.252a.308.308 0 0 0-.141.259v13.497c0 .17.137.307.307.307H4.7c.17 0 .308-.137.308-.307v-11.63c0-.112.092-.204.205-.204l11.884-.003c.063 0 .125.03.163.082l8.94 11.938a.304.304 0 0 0 .246.124h5.543a.308.308 0 1 0 .243-.496l-9.496-12.272zm147.82-17.462c.397.247.734.475 1.033.698a13.708 13.708 0 0 1 3.137 3.314c.012.02.028.037.045.053l.122.114a.32.32 0 0 0 .21.096h20.643a.309.309 0 0 0 .307-.307V.823a.308.308 0 0 0-.307-.307h-25.026a.309.309 0 0 0-.296.223.311.311 0 0 0 .132.346zm-3.783 20.084c-.583 1.319-1.402 2.382-2.436 3.158-1.064.794-2.362 1.361-3.86 1.686-1.588.345-3.37.52-5.3.52h-10.61a.206.206 0 0 1-.204-.206V5.504c0-.113.092-.206.204-.206h10.61c1.295 0 2.53.073 3.67.218 1.105.14 2.137.38 3.07.713a9.705 9.705 0 0 1 2.441 1.275 7.055 7.055 0 0 1 1.764 1.878c.49.76.874 1.679 1.144 2.731.278 1.085.418 2.362.418 3.792 0 2.133-.306 3.904-.91 5.264zm5.98-5.275c0-2.874-.457-5.33-1.358-7.298-.915-1.996-2.202-3.622-3.826-4.835-1.597-1.191-3.498-2.043-5.65-2.533-2.07-.472-4.343-.712-6.753-.712h-15.505a.309.309 0 0 0-.308.308v30.184c0 .17.139.307.308.307h15.547c1.607 0 3.162-.104 4.62-.31a20.651 20.651 0 0 0 4.17-1.023 14.213 14.213 0 0 0 3.59-1.92 11.668 11.668 0 0 0 2.799-2.971c.755-1.147 1.346-2.507 1.758-4.04.404-1.508.609-3.242.609-5.157zm-43.72 4.896a8.86 8.86 0 0 1-2.555 3.428c-1.146.942-2.608 1.67-4.345 2.165-1.794.512-3.916.771-6.311.771-2.396 0-4.526-.26-6.333-.772-1.752-.496-3.229-1.224-4.39-2.169a8.879 8.879 0 0 1-2.583-3.428c-.593-1.38-.893-3.01-.893-4.848 0-1.81.301-3.432.894-4.821a8.864 8.864 0 0 1 2.584-3.436c1.16-.945 2.638-1.679 4.392-2.18 1.807-.519 3.938-.78 6.329-.78 2.396 0 4.52.258 6.31.769 1.739.497 3.2 1.225 4.345 2.165a8.886 8.886 0 0 1 2.556 3.43c.589 1.383.886 3.016.886 4.853 0 1.836-.297 3.47-.886 4.853zm.29-17.006c-1.727-1.293-3.782-2.261-6.114-2.878C120.931.305 118.446 0 115.823 0c-1.752 0-3.45.133-5.048.398-1.62.268-3.158.687-4.572 1.245a17.627 17.627 0 0 0-3.92 2.14 13.364 13.364 0 0 0-3.074 3.123c-.84 1.193-1.501 2.559-1.964 4.059-.46 1.495-.694 3.169-.694 4.972 0 2.721.508 5.123 1.51 7.138a13.882 13.882 0 0 0 4.182 5.018c1.742 1.291 3.812 2.258 6.152 2.873 2.292.602 4.791.908 7.428.908 2.624 0 5.11-.306 7.39-.908 2.33-.618 4.387-1.585 6.111-2.875a13.96 13.96 0 0 0 4.156-5.016c1.002-2.011 1.51-4.412 1.51-7.138s-.507-5.129-1.51-7.139c-1.003-2.015-2.4-3.701-4.156-5.014zM91.826.516h-4.352a.308.308 0 0 0-.307.308V23.33a.205.205 0 1 1-.351.144L64.325.609a.308.308 0 0 0-.22-.092H59.97a.308.308 0 0 0-.308.308v30.184c0 .17.138.307.308.307h4.393c.17 0 .308-.137.308-.307V8.575a.205.205 0 0 1 .352-.144l22.491 22.793a.304.304 0 0 0 .219.091h4.093a.308.308 0 0 0 .308-.307V.824a.308.308 0 0 0-.309-.308zM31.434 2.735c.344.18.637.355.899.537a6.858 6.858 0 0 1 1.9 1.947.309.309 0 0 0 .258.141h20.517a.309.309 0 0 0 .307-.307V.823a.308.308 0 0 0-.308-.307H31.575a.307.307 0 0 0-.306.308v1.64c0 .113.063.218.165.27zM210.341.515h-.714a.146.146 0 0 0-.124.068l-2.147 3.354-2.172-3.355a.147.147 0 0 0-.124-.066h-.717a.147.147 0 0 0-.147.148V5.18c0 .082.065.148.147.148h.783a.15.15 0 0 0 .15-.148V2.668l1.669 2.591a.146.146 0 0 0 .124.07h.556a.15.15 0 0 0 .125-.07l1.666-2.581V5.18c0 .082.066.148.149.148h.776a.15.15 0 0 0 .149-.148V.664a.15.15 0 0 0-.149-.148zm-7.52 0h-4.516a.148.148 0 0 0-.148.149v.75c0 .082.066.148.148.148h1.72V5.18c0 .082.065.148.147.148h.783c.08 0 .147-.066.147-.148V1.562h1.72a.15.15 0 0 0 .147-.148v-.75a.149.149 0 0 0-.148-.148zm-25.665 16.87a.31.31 0 0 0 .224.095h17.313a.307.307 0 0 0 .309-.307L195 13.006a.307.307 0 0 0-.308-.307H177.24a.309.309 0 0 0-.305.347c.115.902.173 1.862.173 2.848 0 .432-.013.851-.034 1.264a.313.313 0 0 0 .083.228zm18.633 9.086h-20.665a.309.309 0 0 0-.223.096l-.016.013-.062.06a.338.338 0 0 0-.045.053 13.338 13.338 0 0 1-3.165 3.344 15.3 15.3 0 0 1-1.05.709.309.309 0 0 0-.134.346.308.308 0 0 0 .297.223h25.064a.31.31 0 0 0 .308-.307v-4.229a.308.308 0 0 0-.309-.308zm-140.76 0H36.006a.307.307 0 0 0-.243.496l3.274 4.229c.058.075.148.12.242.12h15.748a.307.307 0 0 0 .308-.308l-.001-4.229a.306.306 0 0 0-.307-.308zM35.258 12.7a.306.306 0 0 0-.292.212 6.998 6.998 0 0 1-1.378 2.46c-.508.58-1.17 1.096-1.964 1.532a.308.308 0 0 0 .15.577h22.157a.306.306 0 0 0 .307-.307v-4.167a.307.307 0 0 0-.307-.307H35.259z" fill="#007deb" fill-rule="evenodd"/></svg>